<?xml version="1.0" encoding="UTF-8"?> <svg xmlns="http://www.w3.org/2000/svg" width="61" height="61" viewBox="0 0 61 61" fill="none"><rect width="61" height="61" fill="#BB8D7D"></rect><path d="M13.25 26.6575C13.25 26.145 13.3438 25.6675 13.5312 25.2225C13.7188 24.7787 13.975 24.3912 14.3 24.06C14.625 23.7287 15.0125 23.4688 15.4625 23.2812C15.9125 23.0938 16.3937 23 16.9062 23H20.5625V24.7812H16.9062C16.3438 24.7812 15.89 24.9537 15.5463 25.2962C15.2025 25.6387 15.0312 26.0938 15.0312 26.6562C15.0312 27.0813 15.1875 27.4225 15.5 27.6775C15.8125 27.9337 16.2 28.1562 16.6625 28.3438C17.125 28.5312 17.6288 28.7188 18.1725 28.9062C18.7163 29.0938 19.2188 29.325 19.6825 29.6C20.145 29.875 20.5325 30.2225 20.845 30.6413C21.1575 31.06 21.3138 31.6075 21.3138 32.2812C21.3138 32.8188 21.2138 33.3225 21.0138 33.7912C20.8138 34.26 20.5413 34.6662 20.1988 35.01C19.855 35.3537 19.4488 35.6263 18.98 35.825C18.5113 36.025 18.0075 36.125 17.47 36.125H13.4388V34.3438H17.47C18.0825 34.3438 18.5788 34.1537 18.96 33.7712C19.3413 33.39 19.5325 32.8938 19.5325 32.2812C19.5325 31.8562 19.3763 31.5162 19.0638 31.26C18.7513 31.0037 18.3638 30.7812 17.9013 30.5938C17.4388 30.4062 16.935 30.2188 16.3913 30.0312C15.8475 29.8438 15.3438 29.6125 14.8813 29.3375C14.4188 29.0625 14.0312 28.7162 13.7188 28.2962C13.4062 27.8775 13.25 27.33 13.25 26.6562V26.6575Z" fill="white"></path><path d="M46.7987 26.75C46.7987 26.1875 46.6112 25.7188 46.2362 25.3438C45.8612 24.9688 45.3925 24.7812 44.83 24.7812H38.83V23H44.83C45.3425 23 45.8262 23.1 46.2825 23.3C46.7387 23.5 47.1362 23.7688 47.4737 24.1063C47.8112 24.4438 48.08 24.8413 48.28 25.2975C48.48 25.7538 48.58 26.2387 48.58 26.75C48.58 27.4375 48.4425 28.0063 48.1675 28.4563C47.8925 28.9063 47.5925 29.2688 47.2675 29.5438C46.88 29.8688 46.4425 30.125 45.955 30.3125L48.8612 36.125H46.8925L44.1737 30.5H42.1112V36.125H40.33V28.7188H44.83C45.3925 28.7188 45.8612 28.5312 46.2362 28.1562C46.6112 27.7812 46.7987 27.3125 46.7987 26.75Z" fill="white"></path><rect x="30" y="16" width="1" height="28" fill="white"></rect></svg> 