<?xml version="1.0" encoding="UTF-8"?> <svg xmlns="http://www.w3.org/2000/svg" width="253" height="80" viewBox="0 0 253 80" fill="none"><path fill-rule="evenodd" clip-rule="evenodd" d="M76.6667 3.33333H3.33333V76.6667H76.6667V3.33333ZM80 0V80H0V0H80Z" fill="#BB8D7D"></path><path d="M16.3335 36.3747C16.3335 35.6913 16.4585 35.0547 16.7085 34.4613C16.9585 33.8697 17.3002 33.353 17.7335 32.9113C18.1668 32.4697 18.6835 32.123 19.2835 31.873C19.8835 31.623 20.5252 31.498 21.2085 31.498H26.0835V33.873H21.2085C20.4585 33.873 19.8535 34.103 19.3952 34.5597C18.9368 35.0163 18.7085 35.623 18.7085 36.373C18.7085 36.9397 18.9168 37.3947 19.3335 37.7347C19.7502 38.0763 20.2668 38.373 20.8835 38.623C21.5002 38.873 22.1718 39.123 22.8968 39.373C23.6218 39.623 24.2918 39.9313 24.9102 40.298C25.5268 40.6647 26.0435 41.128 26.4602 41.6863C26.8768 42.2447 27.0852 42.9747 27.0852 43.873C27.0852 44.5897 26.9518 45.2613 26.6852 45.8863C26.4185 46.5113 26.0552 47.053 25.5985 47.5113C25.1402 47.9697 24.5985 48.333 23.9735 48.598C23.3485 48.8647 22.6768 48.998 21.9602 48.998H16.5852V46.623H21.9602C22.7768 46.623 23.4385 46.3697 23.9468 45.8597C24.4552 45.3513 24.7102 44.6897 24.7102 43.873C24.7102 43.3063 24.5018 42.853 24.0852 42.5113C23.6685 42.1697 23.1518 41.873 22.5352 41.623C21.9185 41.373 21.2468 41.123 20.5218 40.873C19.7968 40.623 19.1252 40.3147 18.5085 39.948C17.8918 39.5813 17.3752 39.1197 16.9585 38.5597C16.5418 38.0013 16.3335 37.2713 16.3335 36.373V36.3747Z" fill="#BB8D7D"></path><path d="M61.0649 36.167C61.0649 35.417 60.8149 34.792 60.3149 34.292C59.8149 33.792 59.1899 33.542 58.4399 33.542H50.4399V31.167H58.4399C59.1233 31.167 59.7683 31.3004 60.3766 31.5671C60.985 31.8337 61.5149 32.192 61.9649 32.642C62.4149 33.092 62.7733 33.622 63.0399 34.2304C63.3066 34.8387 63.4399 35.4854 63.4399 36.167C63.4399 37.0837 63.2566 37.8421 62.8899 38.4421C62.5233 39.0421 62.1233 39.5254 61.6899 39.892C61.1733 40.3254 60.5899 40.667 59.9399 40.917L63.8149 48.667H61.1899L57.5649 41.167H54.8149V48.667H52.4399V38.792H58.4399C59.1899 38.792 59.8149 38.542 60.3149 38.042C60.8149 37.542 61.0649 36.917 61.0649 36.167Z" fill="#BB8D7D"></path><path d="M40.8333 21.667H39.5V58.3337H40.8333V21.667Z" fill="#BB8D7D"></path><path d="M109.151 32.482H110.615C110.629 32.7253 110.686 33.0257 110.787 33.3834C110.887 33.7268 111.081 34.063 111.368 34.3921C111.655 34.7212 112.072 35.0073 112.617 35.2506C113.162 35.4795 113.887 35.594 114.791 35.594C115.925 35.594 116.83 35.3794 117.504 34.9501C118.193 34.5209 118.538 33.8413 118.538 32.9113C118.538 32.1672 118.322 31.5735 117.892 31.1299C117.461 30.6864 116.916 30.3144 116.255 30.0139C115.61 29.6991 114.906 29.4201 114.146 29.1769C113.385 28.9337 112.674 28.6404 112.014 28.297C111.368 27.9536 110.83 27.5244 110.399 27.0093C109.969 26.4942 109.754 25.8146 109.754 24.9704C109.754 24.3266 109.883 23.7543 110.141 23.2535C110.414 22.7527 110.773 22.3378 111.218 22.0087C111.677 21.6796 112.201 21.4292 112.789 21.2575C113.392 21.0858 114.024 21 114.684 21C115.315 21 115.918 21.0787 116.492 21.2361C117.081 21.3792 117.605 21.6009 118.064 21.9014C118.523 22.1875 118.904 22.5452 119.205 22.9745C119.506 23.3894 119.7 23.8616 119.786 24.391H118.322C118.207 23.5468 117.82 22.9316 117.16 22.5452C116.514 22.1446 115.724 21.9443 114.791 21.9443C114.232 21.9443 113.736 22.0159 113.306 22.1589C112.875 22.2877 112.509 22.4666 112.208 22.6955C111.921 22.9101 111.698 23.1676 111.54 23.4681C111.397 23.7686 111.325 24.0905 111.325 24.4339C111.325 25.0491 111.548 25.5427 111.993 25.9147C112.438 26.2867 112.99 26.6158 113.65 26.902C114.325 27.1881 115.05 27.46 115.825 27.7175C116.614 27.9751 117.339 28.297 117.999 28.6833C118.674 29.0553 119.234 29.5275 119.679 30.0998C120.124 30.6578 120.346 31.3803 120.346 32.2674C120.346 32.9113 120.217 33.4979 119.959 34.0273C119.7 34.5567 119.334 35.0073 118.861 35.3793C118.387 35.7514 117.813 36.0375 117.138 36.2378C116.478 36.4381 115.732 36.5383 114.899 36.5383C114.081 36.5383 113.327 36.4453 112.638 36.2593C111.95 36.059 111.347 35.7871 110.83 35.4437C110.328 35.086 109.926 34.6568 109.624 34.156C109.337 33.6553 109.179 33.0973 109.151 32.482Z" fill="#BB8D7D"></path><path d="M139.313 31.6021H131.885L129.99 36.0232H129L135.373 21H136.449L143.468 36.0232H141.379L139.313 31.6021ZM138.861 30.6364L135.48 23.4038H135.394L132.294 30.6364H138.861Z" fill="#BB8D7D"></path><path d="M148.17 21L155.081 33.8985H155.167L162.143 21H163.629V36.0232H161.669V23.8544H161.583L154.78 36.2808H154.392L147.74 23.7686H147.654V36.0232H146.706V21H148.17Z" fill="#BB8D7D"></path><path d="M175 21.2578H179.888C180.849 21.2578 181.646 21.3938 182.277 21.6656C182.909 21.9232 183.404 22.2522 183.763 22.6529C184.136 23.0392 184.395 23.4612 184.538 23.9191C184.696 24.3769 184.775 24.799 184.775 25.1853C184.775 25.6146 184.703 26.0581 184.56 26.516C184.416 26.9595 184.186 27.3744 183.871 27.7607C183.555 28.1471 183.146 28.469 182.643 28.7265C182.155 28.9841 181.567 29.1343 180.878 29.1772V29.2631L181.093 29.3704C181.266 29.4562 181.409 29.5635 181.524 29.6923C181.653 29.8211 181.811 30.0285 181.998 30.3147C182.199 30.6008 182.464 31.0086 182.794 31.538C183.124 32.0531 183.591 32.747 184.194 33.6198C184.395 33.9203 184.588 34.1921 184.775 34.4353C184.961 34.6643 185.155 34.8646 185.356 35.0363C185.557 35.1936 185.772 35.3153 186.002 35.4011C186.232 35.487 186.497 35.5299 186.799 35.5299C186.87 35.5299 186.942 35.5299 187.014 35.5299C187.086 35.5156 187.158 35.5013 187.229 35.487V36.281C187.028 36.3955 186.827 36.467 186.626 36.4957C186.426 36.5243 186.167 36.5386 185.851 36.5386C185.421 36.5386 185.048 36.4814 184.732 36.3669C184.43 36.2524 184.158 36.1022 183.914 35.9162C183.67 35.7159 183.44 35.4798 183.225 35.208C183.024 34.9361 182.816 34.6356 182.6 34.3066L180.9 31.7955C180.641 31.3949 180.419 31.0587 180.232 30.7868C180.046 30.515 179.845 30.2932 179.629 30.1215C179.414 29.9498 179.17 29.8282 178.897 29.7567C178.639 29.6851 178.309 29.6494 177.907 29.6494H176.96V36.281H175V21.2578ZM176.96 22.2022V28.6836H179.177C179.751 28.6836 180.254 28.5834 180.684 28.3831C181.129 28.1828 181.502 27.9253 181.804 27.6105C182.105 27.2814 182.328 26.9237 182.471 26.5374C182.629 26.1368 182.708 25.7433 182.708 25.357C182.708 24.8992 182.622 24.4771 182.45 24.0908C182.292 23.7045 182.055 23.3754 181.739 23.1035C181.423 22.8174 181.043 22.5956 180.598 22.4382C180.168 22.2808 179.68 22.2022 179.134 22.2022H176.96Z" fill="#BB8D7D"></path><path d="M188.947 28.7691C188.947 27.9536 189.097 27.088 189.399 26.1723C189.715 25.2566 190.203 24.4196 190.863 23.6613C191.523 22.8886 192.363 22.2519 193.382 21.7512C194.401 21.2504 195.621 21 197.042 21C198.477 21 199.719 21.2575 200.766 21.7726C201.829 22.2734 202.704 22.9101 203.393 23.6827C204.082 24.4553 204.592 25.2995 204.922 26.2152C205.252 27.1166 205.417 27.9679 205.417 28.7691C205.417 29.2985 205.338 29.8565 205.18 30.4432C205.037 31.0298 204.814 31.6164 204.513 32.203C204.226 32.7753 203.852 33.3262 203.393 33.8556C202.934 34.3706 202.388 34.8285 201.757 35.2291C201.14 35.6297 200.436 35.9517 199.647 36.1949C198.872 36.4238 198.004 36.5383 197.042 36.5383C195.621 36.5383 194.401 36.2879 193.382 35.7871C192.363 35.272 191.523 34.6282 190.863 33.8556C190.203 33.0829 189.715 32.2459 189.399 31.3445C189.097 30.4288 188.947 29.5704 188.947 28.7691ZM191.057 28.7691C191.057 29.7707 191.207 30.6935 191.509 31.5377C191.825 32.3676 192.248 33.0829 192.779 33.6839C193.324 34.2848 193.963 34.757 194.695 35.1003C195.427 35.4294 196.224 35.594 197.085 35.594C197.932 35.594 198.728 35.4294 199.475 35.1003C200.235 34.757 200.896 34.2848 201.455 33.6839C202.03 33.0829 202.482 32.3676 202.812 31.5377C203.142 30.6935 203.307 29.7707 203.307 28.7691C203.307 27.7676 203.142 26.8519 202.812 26.022C202.482 25.1779 202.03 24.4553 201.455 23.8544C200.896 23.2535 200.235 22.7885 199.475 22.4594C198.728 22.116 197.932 21.9443 197.085 21.9443C196.224 21.9443 195.427 22.116 194.695 22.4594C193.963 22.7885 193.324 23.2535 192.779 23.8544C192.248 24.4553 191.825 25.1779 191.509 26.022C191.207 26.8519 191.057 27.7676 191.057 28.7691Z" fill="#BB8D7D"></path><path d="M207.144 21.2578H209.362L213.754 29.1772H213.84L218.447 21.2578H219.61L214.314 30.4005V36.281H212.354V30.5937L207.144 21.2578Z" fill="#BB8D7D"></path><path d="M229.273 31.8599H221.845L219.951 36.281H218.96L225.333 21.2578H226.41L233.428 36.281H231.34L229.273 31.8599ZM228.821 30.8942L225.441 23.6616H225.355L222.254 30.8942H228.821Z" fill="#BB8D7D"></path><path d="M236.667 36.281V21.2578H238.626V35.1006H246.398V36.281H236.667Z" fill="#BB8D7D"></path><path d="M119.313 53.3217H111.885L109.99 57.7429H109L115.373 42.7197H116.449L123.468 57.7429H121.379L119.313 53.3217ZM118.861 52.356L115.48 45.1234H115.394L112.294 52.356H118.861Z" fill="#BB8D7D"></path><path d="M140.421 51.0466V57.7427H138.569V56.8627C138.024 57.1489 137.335 57.4136 136.502 57.6568C135.67 57.8857 134.715 58.0002 133.639 58.0002C132.204 58.0002 130.969 57.7784 129.936 57.3349C128.902 56.877 128.048 56.2761 127.374 55.5321C126.714 54.7738 126.218 53.9225 125.888 52.9782C125.572 52.0195 125.415 51.0323 125.415 50.0164C125.415 48.8289 125.623 47.7701 126.039 46.8401C126.455 45.8958 127.036 45.1017 127.783 44.4579C128.529 43.814 129.412 43.3204 130.431 42.977C131.464 42.6336 132.591 42.4619 133.811 42.4619C134.873 42.4619 135.792 42.5835 136.567 42.8268C137.356 43.0557 138.017 43.3418 138.548 43.6852C139.079 44.0286 139.495 44.4006 139.796 44.8012C140.112 45.1876 140.335 45.5381 140.464 45.8529H138.914C138.827 45.5524 138.634 45.2591 138.332 44.9729C138.045 44.6725 137.672 44.4078 137.213 44.1789C136.753 43.9499 136.23 43.7639 135.641 43.6208C135.053 43.4778 134.421 43.4062 133.747 43.4062C132.727 43.4062 131.83 43.5708 131.055 43.8999C130.295 44.2289 129.649 44.6939 129.118 45.2949C128.587 45.8958 128.185 46.6112 127.912 47.441C127.654 48.2709 127.524 49.1794 127.524 50.1667C127.524 51.1682 127.661 52.0911 127.934 52.9352C128.221 53.7651 128.644 54.4876 129.204 55.1029C129.764 55.7038 130.467 56.176 131.314 56.5193C132.161 56.8627 133.151 57.0344 134.285 57.0344C135.146 57.0344 135.914 56.9343 136.588 56.734C137.263 56.5336 137.923 56.226 138.569 55.8111V51.9265H136.158V51.0466H140.421Z" fill="#BB8D7D"></path><path d="M144.304 42.7197H154.036V43.9001H146.263V49.2869H152.938V50.2742H146.263V56.5625H154.036V57.7429H144.304V42.7197Z" fill="#BB8D7D"></path><path d="M169.398 42.7195H170.389V58.0002H170.281L158.332 46.2606H158.246V57.7427H157.256V42.4619H157.363L169.312 54.2015H169.398V42.7195Z" fill="#BB8D7D"></path><path d="M188.228 54.9741L188.874 55.5536C188.688 55.7682 188.415 56.0186 188.056 56.3047C187.697 56.5909 187.245 56.8627 186.7 57.1203C186.169 57.3635 185.537 57.571 184.805 57.7427C184.087 57.9144 183.269 58.0002 182.351 58.0002C180.901 58.0002 179.652 57.7784 178.605 57.3349C177.557 56.877 176.696 56.2833 176.021 55.5536C175.346 54.8096 174.844 53.9654 174.514 53.0211C174.198 52.0625 174.04 51.0824 174.04 50.0808C174.04 48.9219 174.241 47.8774 174.643 46.9474C175.045 46.0031 175.612 45.2019 176.344 44.5437C177.076 43.8712 177.951 43.3562 178.971 42.9985C180.004 42.6408 181.145 42.4619 182.394 42.4619C183.255 42.4619 184.023 42.5478 184.697 42.7195C185.372 42.8912 185.96 43.1272 186.463 43.4277C186.965 43.7282 187.381 44.0859 187.712 44.5008C188.056 44.9157 188.336 45.3664 188.551 45.8529H186.958C186.857 45.5524 186.678 45.2591 186.42 44.9729C186.176 44.6725 185.853 44.4078 185.451 44.1789C185.063 43.9499 184.611 43.7639 184.095 43.6208C183.592 43.4778 183.032 43.4062 182.415 43.4062C181.511 43.4062 180.671 43.5708 179.896 43.8999C179.136 44.2289 178.475 44.6868 177.916 45.2734C177.356 45.86 176.918 46.5611 176.602 47.3766C176.301 48.1779 176.15 49.065 176.15 50.0379C176.15 50.9536 176.294 51.8335 176.581 52.6777C176.882 53.5219 177.32 54.2659 177.894 54.9097C178.468 55.5536 179.186 56.0686 180.047 56.455C180.908 56.8413 181.899 57.0344 183.018 57.0344C185.027 57.0344 186.764 56.3476 188.228 54.9741Z" fill="#BB8D7D"></path><path d="M189.946 42.7197H192.164L196.556 50.639H196.642L201.249 42.7197H202.412L197.115 51.8623V57.7429H195.156V52.0555L189.946 42.7197Z" fill="#BB8D7D"></path><rect x="124" y="21" width="2" height="15" fill="#BB8D7D"></rect></svg> 