<?xml version="1.0" encoding="UTF-8"?> <svg xmlns="http://www.w3.org/2000/svg" width="140" height="140" viewBox="0 0 140 140" fill="none"><circle cx="120" cy="20" r="20" fill="#BB8D7D"></circle><circle cx="70" cy="70" r="69" stroke="#BB8D7D" stroke-width="2"></circle><path d="M119.578 18.12C119.858 18.12 120.178 18.0933 120.538 18.04C120.911 17.9733 121.258 17.8467 121.578 17.66C121.911 17.46 122.184 17.18 122.398 16.82C122.624 16.46 122.738 15.9867 122.738 15.4C122.738 15.04 122.684 14.7 122.578 14.38C122.484 14.0467 122.331 13.7533 122.118 13.5C121.918 13.2333 121.658 13.0267 121.338 12.88C121.018 12.72 120.638 12.64 120.198 12.64C119.918 12.64 119.651 12.6733 119.398 12.74C119.144 12.8067 118.918 12.9333 118.718 13.12C118.518 13.2933 118.351 13.54 118.218 13.86C118.084 14.18 117.991 14.5867 117.938 15.08H116.158C116.171 14.72 116.244 14.3467 116.378 13.96C116.524 13.56 116.758 13.2 117.078 12.88C117.398 12.5467 117.818 12.28 118.338 12.08C118.858 11.8667 119.511 11.76 120.298 11.76C121.018 11.76 121.638 11.8667 122.158 12.08C122.691 12.28 123.124 12.5533 123.458 12.9C123.804 13.2333 124.058 13.6267 124.218 14.08C124.378 14.5333 124.458 15.0067 124.458 15.5C124.458 16.1933 124.271 16.76 123.898 17.2C123.524 17.6267 122.958 18 122.198 18.32L121.978 18.4V18.54L122.198 18.58C122.638 18.6467 123.031 18.7933 123.378 19.02C123.724 19.2333 124.018 19.5 124.258 19.82C124.511 20.1267 124.704 20.4733 124.838 20.86C124.971 21.2333 125.038 21.6067 125.038 21.98C125.038 22.5133 124.931 23.0333 124.718 23.54C124.518 24.0467 124.211 24.5 123.798 24.9C123.384 25.2867 122.864 25.6 122.238 25.84C121.624 26.08 120.904 26.2 120.078 26.2C119.491 26.2133 118.938 26.1333 118.418 25.96C117.898 25.7867 117.438 25.5467 117.038 25.24C116.651 24.92 116.338 24.5533 116.098 24.14C115.871 23.7267 115.758 23.2933 115.758 22.84H117.758C117.771 23.16 117.838 23.4733 117.958 23.78C118.091 24.0867 118.264 24.3533 118.478 24.58C118.704 24.8067 118.971 24.9933 119.278 25.14C119.584 25.2733 119.931 25.34 120.318 25.34C121.118 25.34 121.764 25.0733 122.258 24.54C122.764 24.0067 123.018 23.18 123.018 22.06C123.018 21.82 122.991 21.5267 122.938 21.18C122.884 20.8333 122.744 20.5 122.518 20.18C122.304 19.8467 121.964 19.5667 121.498 19.34C121.031 19.1133 120.391 19 119.578 19V18.12Z" fill="white"></path><path d="M83.2397 56.0619C88.6544 56.6468 92.8228 59.4499 96.5864 62.9948C98.7128 65.0088 100.62 67.2393 102.276 69.6494C102.63 70.1595 102.752 70.6585 102.374 71.1967C99.0697 75.8946 95.2195 80.0226 90.0797 82.7977C89.0269 83.3605 87.9247 83.8271 86.7867 84.1917C85.6571 84.5655 84.4728 84.7524 83.2397 85.0271V85.726C83.2397 89.644 83.2397 93.5628 83.2397 97.4821C83.2397 101.315 80.6189 103.978 76.763 103.989C68.1401 104.014 59.5177 104.014 50.8961 103.989C46.9818 103.989 44.4006 101.32 44.3987 97.3569C44.3987 80.8212 44.3987 64.2849 44.3987 47.748C44.3987 46.3483 44.3893 44.9449 44.3987 43.5508C44.427 39.6265 47.044 37.0215 50.9977 37.0103C59.5491 36.9966 68.1005 36.9966 76.6519 37.0103C80.6339 37.0103 83.2415 39.6489 83.2415 43.6199C83.2415 47.4919 83.2415 51.3639 83.2415 55.2359L83.2397 56.0619ZM81.1027 56.0413V55.5031C81.1027 51.4929 81.1027 47.4826 81.1027 43.4723C81.1027 40.8561 79.365 39.1462 76.7197 39.1444C68.1231 39.1444 59.5253 39.1444 50.9262 39.1444C48.264 39.1444 46.5639 40.8262 46.5639 43.4667C46.5639 61.4924 46.5639 79.5168 46.5639 97.54C46.5639 100.177 48.2696 101.855 50.9337 101.857C59.5303 101.857 68.1281 101.857 76.7273 101.857C79.3631 101.857 81.0933 100.143 81.1009 97.5195C81.1122 93.5335 81.1009 89.5456 81.1009 85.5596C81.1009 85.3466 81.0651 85.1336 81.0463 84.9187C78.625 84.6857 76.2797 83.9524 74.1611 82.7659C69.0777 79.9628 65.2294 75.861 61.9477 71.1798C61.5825 70.6585 61.6634 70.1707 62.0325 69.7017C63.1414 68.2852 64.1769 66.8033 65.38 65.4709C69.6256 60.7655 74.3945 56.8748 81.1027 56.0413ZM82.3416 58.1773C80.2772 58.1755 78.2391 58.636 76.3789 59.5246C71.3125 61.9166 67.5922 65.8166 64.32 70.2081C64.2757 70.3113 64.2571 70.4236 64.2656 70.5354C64.2741 70.6473 64.3095 70.7555 64.3689 70.8509C66.9652 74.3735 69.9419 77.5241 73.632 79.9441C76.0137 81.5064 78.5799 82.6201 81.4699 82.7902C84.5086 82.9771 87.2537 82.0147 89.8161 80.4879C93.9355 78.0362 97.1588 74.6426 99.9716 70.836C100.027 70.7263 100.055 70.6048 100.052 70.4821C100.05 70.3594 100.018 70.2391 99.9584 70.1315C97.4543 66.7155 94.5794 63.6601 91.0493 61.2681C88.3682 59.4592 85.4707 58.2165 82.3416 58.1773Z" fill="#BB8D7D"></path><path d="M63.8213 44.8635C62.8347 44.8635 61.85 44.8635 60.8635 44.8635C60.0351 44.8542 59.5681 44.4692 59.555 43.8114C59.5418 43.1537 59.9955 42.7276 60.8202 42.722C62.8159 42.7058 64.8116 42.7058 66.8073 42.722C67.6225 42.722 68.0951 43.1537 68.0857 43.804C68.0763 44.4543 67.5905 44.8561 66.7809 44.8654C65.7944 44.871 64.8078 44.8635 63.8213 44.8635Z" fill="#BB8D7D"></path><path d="M63.8378 98.1109C62.9944 98.1109 62.1434 98.124 61.3093 98.1109C60.5449 98.0941 60.1063 97.6811 60.1194 97.0345C60.1307 96.4235 60.5713 95.9955 61.2811 95.9881C62.968 95.9706 64.6543 95.9706 66.34 95.9881C67.0724 95.9881 67.5506 96.4552 67.5374 97.0775C67.5242 97.6998 67.0837 98.0922 66.3664 98.109C65.5172 98.1259 64.6738 98.1109 63.8378 98.1109Z" fill="#BB8D7D"></path><path d="M49.3882 43.7498C49.3763 43.4949 49.3953 43.2396 49.4447 42.9892C49.4998 42.7472 49.6442 42.5344 49.8494 42.3926C50.0546 42.2508 50.3058 42.1903 50.5536 42.223C50.7917 42.2259 51.0204 42.3153 51.1964 42.4745C51.3723 42.6336 51.4833 42.8514 51.5082 43.0864C51.5537 43.4791 51.5606 43.8752 51.5289 44.2693C51.5006 44.9252 51.0883 45.3401 50.4858 45.3494C49.8834 45.3587 49.4372 44.9308 49.4033 44.2282C49.4033 44.0675 49.4033 43.903 49.4033 43.7404L49.3882 43.7498Z" fill="#BB8D7D"></path><path d="M54.0368 43.7853C54.0368 43.5984 54.0218 43.4115 54.0368 43.2246C54.0895 42.6136 54.4943 42.2249 55.0723 42.2155C55.3453 42.2048 55.6116 42.3008 55.814 42.4828C56.0165 42.6649 56.1389 42.9185 56.1549 43.1891C56.1844 43.5366 56.1876 43.8858 56.1643 44.2338C56.1304 44.9214 55.6974 45.355 55.0742 45.355C54.451 45.355 54.0613 44.9289 54.0293 44.2095C54.0293 44.0693 54.0293 43.9292 54.0293 43.7909L54.0368 43.7853Z" fill="#BB8D7D"></path><path d="M82.178 77.5484C80.7725 77.5477 79.3989 77.133 78.231 76.357C77.0631 75.5809 76.1534 74.4783 75.6172 73.1889C75.081 71.8994 74.9424 70.481 75.2188 69.1132C75.4952 67.7455 76.1743 66.4899 77.1701 65.5054C78.1659 64.521 79.4336 63.852 80.8127 63.583C82.1918 63.3141 83.6203 63.4574 84.9173 63.9947C86.2143 64.5321 87.3215 65.4393 88.0988 66.6016C88.876 67.7639 89.2883 69.1289 89.2834 70.5239C89.2745 72.389 88.5221 74.1748 87.1907 75.4911C85.8593 76.8073 84.0571 77.547 82.178 77.5484ZM82.2043 75.4125C83.182 75.4029 84.1348 75.1061 84.9427 74.5597C85.7506 74.0132 86.3774 73.2415 86.744 72.3419C87.1105 71.4423 87.2005 70.4551 87.0025 69.5048C86.8045 68.5546 86.3274 67.6838 85.6314 67.0023C84.9353 66.3208 84.0516 65.8592 83.0916 65.6757C82.1315 65.4921 81.1383 65.5949 80.237 65.971C79.3357 66.3471 78.5669 66.9796 78.0274 67.7889C77.4879 68.5982 77.202 69.5479 77.2057 70.5183C77.2096 71.1654 77.3421 71.8054 77.5956 72.4016C77.8491 72.9978 78.2185 73.5385 78.6829 73.9928C79.1472 74.447 79.6972 74.8059 80.3015 75.0489C80.9058 75.2919 81.5524 75.4142 82.2043 75.4088V75.4125Z" fill="#BB8D7D"></path></svg> 