<?xml version="1.0" encoding="UTF-8"?> <svg xmlns="http://www.w3.org/2000/svg" width="140" height="140" viewBox="0 0 140 140" fill="none"><circle cx="120" cy="20" r="20" fill="#BB8D7D"></circle><circle cx="70" cy="70" r="69" stroke="#BB8D7D" stroke-width="2"></circle><path d="M121.687 26H119.987V13.88L118.447 15.48L117.907 14.92L120.727 12H121.687V26Z" fill="white"></path><rect x="37" y="39" width="28" height="28" rx="3" stroke="#BB8D7D" stroke-width="2"></rect><rect x="37" y="73" width="28" height="28" rx="3" stroke="#BB8D7D" stroke-width="2"></rect><rect x="70.7773" y="39" width="28" height="28" rx="3" stroke="#BB8D7D" stroke-width="2"></rect><path d="M54.0429 53.1144C54.0442 52.7045 53.9642 52.2984 53.8077 51.9195C53.6511 51.5405 53.4211 51.1962 53.1307 50.9064C52.8404 50.6166 52.4955 50.3869 52.1159 50.2306C51.7363 50.0743 51.3295 49.9946 50.9188 49.9958V50.8135C51.5412 50.8185 52.1367 51.0675 52.5769 51.5069C53.017 51.9462 53.2664 52.5406 53.2714 53.162L54.0429 53.1144ZM56.005 53.1144C56.0062 52.4478 55.8755 51.7874 55.6202 51.1714C55.3649 50.5553 54.9902 49.9958 54.5175 49.5248C54.0448 49.0538 53.4836 48.6808 52.866 48.4271C52.2484 48.1734 51.5867 48.0442 50.9188 48.0467V48.8073C52.0593 48.8197 53.1496 49.2774 53.9561 50.0825C54.7626 50.8876 55.2211 51.9759 55.2335 53.1144H56.005ZM53.4429 59C53.5 59 53.5953 58.9429 53.681 58.8954C54.4517 58.3966 55.1585 57.806 55.7859 57.1364C56.1098 56.7846 56.0907 56.6229 55.7002 56.3377C55.0162 55.8456 54.2931 55.4099 53.5381 55.0351C53.0809 54.8164 53.0047 54.8354 52.6619 55.2253C52.4714 55.4535 52.2714 55.6721 52.0713 55.9003C52.0237 55.9573 51.9761 55.9573 51.8999 55.9003C51.1581 55.6913 50.4719 55.3212 49.8902 54.8164C49.0294 54.1118 48.4019 53.1639 48.09 52.0971C48.0699 52.0731 48.0588 52.0428 48.0588 52.0115C48.0588 51.9802 48.0699 51.9499 48.09 51.9259L48.7949 51.2984C49.1473 50.9846 49.1663 50.9181 48.9663 50.4902C48.5849 49.7157 48.1389 48.9746 47.6329 48.2748C47.5743 48.2038 47.5106 48.137 47.4424 48.0752C47.3926 48.0269 47.326 48 47.2566 48C47.1873 48 47.1207 48.0269 47.0709 48.0752C46.9871 48.1213 46.9102 48.1789 46.8423 48.2463C46.2069 48.8455 45.6384 49.5119 45.1469 50.2335C45.0807 50.3277 45.0354 50.435 45.014 50.5482C44.9927 50.6613 44.9957 50.7777 45.0231 50.8896C45.181 51.6982 45.4706 52.4754 45.8803 53.1905C46.6539 54.5437 47.6635 55.748 48.8615 56.7465C49.717 57.487 50.6805 58.093 51.7189 58.5436C52.2515 58.7659 52.8125 58.9131 53.3857 58.981" fill="#BB8D7D"></path><path d="M52.3047 88.1163C52.2079 88.2603 52.0841 88.3842 51.9401 88.481C51.8126 88.5721 51.6743 88.6472 51.5284 88.7045C51.3376 88.78 51.1335 88.816 50.9285 88.8104C50.7091 88.8206 50.4902 88.7828 50.287 88.6995C50.0838 88.6161 49.9013 88.4894 49.7522 88.3281C49.4318 87.9664 49.267 87.4931 49.2935 87.0107C49.2907 86.7745 49.343 86.5409 49.4464 86.3285C49.5527 86.1099 49.7005 85.9141 49.8816 85.7521C50.0661 85.5855 50.2767 85.4505 50.505 85.3522C50.7564 85.2541 51.0233 85.2022 51.2931 85.1993H52.3047V88.1163ZM53.9632 89.9395C54.1988 90.0151 54.4452 90.051 54.6925 90.0454C55.0978 90.0488 55.4991 89.9646 55.8688 89.7984C56.2283 89.6422 56.5495 89.4094 56.8098 89.1162C57.0986 88.7709 57.3146 88.3708 57.4449 87.94C57.6154 87.4444 57.6989 86.9231 57.692 86.3991C57.701 85.5236 57.533 84.6554 57.1979 83.8465C56.8958 83.0882 56.4429 82.3991 55.8667 81.8208C55.2904 81.2426 54.6029 80.7873 53.8456 80.4825C53.0344 80.1568 52.1672 79.993 51.2931 80.0002C50.3566 79.9977 49.429 80.1816 48.5642 80.5413C47.7368 80.8967 46.9829 81.4034 46.3411 82.0351C45.7046 82.6775 45.1974 83.4363 44.8473 84.27C44.1264 86.0138 44.1264 87.9722 44.8473 89.716C45.1974 90.5498 45.7046 91.3086 46.3411 91.951C46.9849 92.5802 47.7384 93.0865 48.5642 93.4448C49.429 93.8045 50.3566 93.9883 51.2931 93.9859C51.5673 94.0046 51.8424 94.0046 52.1165 93.9859C52.3381 93.954 52.558 93.9109 52.7752 93.8565C52.9346 93.8234 53.0918 93.7802 53.2457 93.7271L52.9516 92.5509L52.6341 92.645C52.4371 92.6957 52.2366 92.731 52.0342 92.7508C51.7875 92.7699 51.5398 92.7699 51.2931 92.7508C50.5271 92.7538 49.7692 92.5935 49.07 92.2803C48.3785 91.9848 47.7512 91.5573 47.2233 91.0217C46.6929 90.487 46.2627 89.8615 45.9529 89.175C45.6492 88.4733 45.493 87.7165 45.4942 86.9519C45.4906 86.187 45.6469 85.4297 45.9529 84.7287C46.2596 84.037 46.6902 83.4072 47.2233 82.8703C47.7555 82.3399 48.3817 81.9131 49.07 81.6117C49.741 81.3155 50.4644 81.1566 51.1978 81.1445C51.9311 81.1323 52.6595 81.2672 53.3398 81.5411C53.9531 81.8034 54.5117 82.1784 54.9866 82.6468C55.9601 83.6341 56.5053 84.9654 56.504 86.352C56.5399 86.9877 56.3434 87.6148 55.9511 88.1163C55.8003 88.3076 55.6095 88.4635 55.3921 88.5732C55.1747 88.683 54.9359 88.7439 54.6925 88.7516C54.4913 88.7573 54.291 88.7212 54.1044 88.6457C53.9635 88.585 53.8386 88.4924 53.7397 88.3752C53.6272 88.2793 53.5454 88.1525 53.5045 88.0105V83.8701H51.3049C50.873 83.8666 50.4448 83.9507 50.0463 84.1171C49.6668 84.2691 49.3225 84.4973 49.0347 84.7876C48.7459 85.079 48.5144 85.4221 48.3525 85.7992C48.1944 86.2039 48.1146 86.6349 48.1172 87.0695C48.1173 87.471 48.189 87.8693 48.329 88.2457C48.4583 88.6 48.6584 88.9242 48.9171 89.1986C49.1688 89.4546 49.4686 89.6584 49.7993 89.7984C50.1498 89.9428 50.5259 90.0148 50.905 90.0101C51.156 90.0146 51.4062 89.9789 51.646 89.9043C51.854 89.833 52.0548 89.7424 52.2459 89.6338C52.4324 89.523 52.6094 89.3971 52.7752 89.2574L52.9399 89.1279L53.0693 89.2926C53.1816 89.4278 53.3122 89.5465 53.4575 89.6455C53.6173 89.755 53.7914 89.8421 53.975 89.9043" fill="#BB8D7D"></path><path d="M91 48.8065C90.9244 49.1342 90.8464 49.4615 90.7735 49.7897C90.2186 52.2851 89.6642 54.7805 89.1102 57.2761C89.0699 57.4588 89.035 57.6427 88.9855 57.8231C88.8217 58.417 88.3704 58.5678 87.8521 58.2034C86.9647 57.5802 86.0779 56.9564 85.1917 56.3319C84.9326 56.1496 84.933 56.1492 84.7048 56.3586C84.2735 56.7542 83.8425 57.1501 83.4117 57.5462C83.3445 57.6124 83.2638 57.6647 83.1746 57.6997C83.0854 57.7347 82.9897 57.7517 82.8933 57.7497C82.9052 57.5745 82.9164 57.4025 82.9289 57.2296C82.9856 56.4681 83.0405 55.7062 83.1025 54.945C83.1117 54.8795 83.1445 54.8192 83.1951 54.7744C84.9854 53.2255 86.7782 51.6779 88.5735 50.1317C88.5891 50.118 88.6105 50.1076 88.6203 50.0907C88.6542 50.0312 88.6857 49.9695 88.7183 49.9084C88.641 49.8938 88.5603 49.8587 88.4874 49.8697C88.4037 49.8827 88.322 49.9295 88.2477 49.974C86.0218 51.3099 83.7975 52.6473 81.5748 53.9862C81.5303 54.0174 81.4783 54.0375 81.4236 54.0447C81.3689 54.0519 81.3133 54.046 81.2616 54.0275C80.3397 53.747 79.4148 53.4746 78.493 53.1944C78.3685 53.157 78.2509 53.1011 78.1445 53.0286C77.9688 52.9074 77.9495 52.7338 78.1075 52.5928C78.2325 52.4785 78.3782 52.387 78.5374 52.3227C79.4047 51.9925 80.2773 51.6756 81.148 51.3551C84.1292 50.2589 87.1105 49.1634 90.0917 48.0687C90.1777 48.0356 90.2679 48.0138 90.3599 48.0037C90.6874 47.9745 90.8918 48.1181 90.9749 48.423C90.9814 48.4464 90.9915 48.4685 91 48.4913V48.8065Z" fill="#BB8D7D"></path><path d="M98.0862 120.996C97.8673 120.85 97.6609 120.687 97.4691 120.506C94.6597 117.41 91.3367 114.95 87.8385 112.723C85.6781 111.349 83.3955 110.164 81.2603 108.753C79.0361 107.285 77.8099 105.176 78.0567 102.407C78.1894 100.928 79.0082 99.8377 80.2636 99.0839C80.7228 98.8078 81.2112 98.9172 81.4898 99.3081C81.7685 99.699 81.7009 100.186 81.3041 100.539C79.5019 102.14 79.3281 103.8 80.7401 105.791C81.3171 106.58 82.0655 107.227 82.9284 107.683C86.7649 109.809 90.5166 112.079 93.943 114.834C95.4148 116.018 96.775 117.343 98.1737 118.617C98.3927 118.817 98.5387 118.917 98.8373 118.74C104.484 115.449 110.135 112.164 115.791 108.886C115.844 108.851 115.895 108.814 115.945 108.774C115.716 107.949 115.424 107.132 115.27 106.287C114.968 104.631 114.749 102.96 114.482 101.297C114.13 99.0973 113.288 97.0801 112.182 95.1602C110.278 91.8453 108.378 88.5282 106.48 85.2088C106.202 84.7245 105.846 84.3616 105.301 84.2095C104.667 84.0321 104.062 84.0761 103.576 84.5644C103.338 84.7802 103.163 85.057 103.07 85.365C102.976 85.6731 102.968 86.0009 103.045 86.3135C103.089 86.5016 103.169 86.6817 103.231 86.8658C103.409 87.3848 103.256 87.8411 102.833 88.0545C102.41 88.268 101.928 88.1479 101.639 87.6863C101.117 86.8431 100.663 85.9519 100.113 85.1341C99.4915 84.2002 98.5533 83.8666 97.4757 84.0441C96.4366 84.2162 95.728 84.8446 95.3736 85.8532C95.1554 86.4604 95.1758 87.1284 95.4307 87.721C95.4984 87.8851 95.5793 88.0439 95.6311 88.2133C95.7784 88.6976 95.5939 89.1472 95.1839 89.3393C94.7738 89.5314 94.316 89.418 94.0333 88.9791C93.6683 88.4148 93.3698 87.8064 92.9915 87.2514C92.7886 86.9432 92.5245 86.6805 92.2158 86.4797C91.9072 86.2789 91.5606 86.1444 91.1978 86.0845C90.835 86.0246 90.4638 86.0407 90.1075 86.1318C89.7512 86.2228 89.4174 86.3869 89.1271 86.6137C88.6533 86.9779 88.3123 87.4891 88.157 88.0681C88.0018 88.647 88.041 89.2613 88.2685 89.8156C88.6189 90.6695 88.5552 91.1151 88.0403 91.3872C87.5253 91.6594 87.1432 91.4713 86.6216 90.7362C83.5632 86.4118 80.5021 82.09 77.4383 77.7709C77.0779 77.2675 76.666 76.8033 76.2094 76.3861C75.4981 75.7363 74.7298 75.6643 73.968 76.0846C73.1492 76.5355 72.6595 77.3587 72.8294 78.2405C72.9418 78.8463 73.1582 79.4278 73.4691 79.9589C77.4635 86.5274 81.473 93.0861 85.4976 99.6349C85.6135 99.8124 85.7142 99.9994 85.7988 100.194C85.8859 100.39 85.8972 100.611 85.8304 100.815C85.7637 101.019 85.6237 101.19 85.4379 101.296C85.2543 101.406 85.0369 101.446 84.8264 101.407C84.6159 101.368 84.4266 101.254 84.2939 101.085C84.1842 100.947 84.0852 100.8 83.998 100.646C79.9637 94.0644 75.9308 87.4786 71.8991 80.8888C71.1308 79.6334 70.7565 78.3113 71.1719 76.837C71.7585 74.7571 74.6103 72.8519 77.1795 74.8358C77.837 75.3732 78.4148 76.0021 78.8954 76.7036C81.316 80.0683 83.6954 83.4624 86.0908 86.8431C86.1996 86.9992 86.3137 87.1527 86.4425 87.3314C87.7695 84.0841 91.2531 83.4464 93.6391 85.2435C94.3239 83.5745 95.5077 82.4845 97.2926 82.2403C99.0562 81.9962 100.515 82.6406 101.539 83.9747C102.107 83.5184 102.594 82.9728 103.201 82.6699C104 82.2641 104.923 82.178 105.784 82.429C106.644 82.6801 107.378 83.2495 107.837 84.0227C110.205 88.0714 112.517 92.1544 114.773 96.2716C115.866 98.2728 116.264 100.503 116.514 102.754C116.733 104.735 117.126 106.674 117.83 108.544C118.157 109.413 118.04 109.681 117.237 110.145C111.11 113.703 104.984 117.261 98.8572 120.819C98.7722 120.874 98.6906 120.935 98.613 121L98.0862 120.996Z" fill="#BB8D7D"></path></svg> 