<?xml version="1.0" encoding="UTF-8"?> <svg xmlns="http://www.w3.org/2000/svg" width="140" height="140" viewBox="0 0 140 140" fill="none"><circle cx="120" cy="20" r="20" fill="#BB8D7D"></circle><circle cx="70" cy="70" r="69" stroke="#BB8D7D" stroke-width="2"></circle><path d="M119.01 18.46C118.544 18.4067 118.137 18.2733 117.79 18.06C117.457 17.8467 117.17 17.5933 116.93 17.3C116.704 16.9933 116.53 16.6667 116.41 16.32C116.304 15.9733 116.25 15.6267 116.25 15.28C116.25 14.9067 116.324 14.5133 116.47 14.1C116.617 13.6867 116.857 13.3067 117.19 12.96C117.524 12.6133 117.957 12.3267 118.49 12.1C119.024 11.8733 119.684 11.76 120.47 11.76C121.244 11.76 121.897 11.8733 122.43 12.1C122.977 12.3267 123.417 12.6133 123.75 12.96C124.084 13.3067 124.324 13.6867 124.47 14.1C124.63 14.5133 124.71 14.9067 124.71 15.28C124.71 15.6267 124.65 15.9733 124.53 16.32C124.424 16.6667 124.25 16.9933 124.01 17.3C123.784 17.5933 123.497 17.8467 123.15 18.06C122.817 18.2733 122.424 18.4067 121.97 18.46V18.56C122.464 18.5867 122.904 18.7133 123.29 18.94C123.69 19.1533 124.024 19.4333 124.29 19.78C124.57 20.1133 124.784 20.4867 124.93 20.9C125.077 21.3133 125.15 21.7267 125.15 22.14C125.15 22.6333 125.05 23.1267 124.85 23.62C124.664 24.1 124.377 24.5333 123.99 24.92C123.604 25.3067 123.117 25.62 122.53 25.86C121.944 26.1 121.257 26.22 120.47 26.22C119.684 26.22 118.997 26.1 118.41 25.86C117.837 25.62 117.357 25.3067 116.97 24.92C116.597 24.5333 116.317 24.1 116.13 23.62C115.944 23.1267 115.85 22.6333 115.85 22.14C115.85 21.7267 115.924 21.3133 116.07 20.9C116.217 20.4867 116.424 20.1133 116.69 19.78C116.957 19.4333 117.284 19.1533 117.67 18.94C118.07 18.7133 118.517 18.5867 119.01 18.56V18.46ZM120.47 18.22C120.804 18.22 121.124 18.1667 121.43 18.06C121.75 17.94 122.03 17.7667 122.27 17.54C122.524 17.3 122.724 17.0133 122.87 16.68C123.017 16.3333 123.09 15.9267 123.09 15.46C123.09 14.9 122.997 14.44 122.81 14.08C122.637 13.7067 122.417 13.42 122.15 13.22C121.884 13.0067 121.597 12.86 121.29 12.78C120.997 12.6867 120.724 12.64 120.47 12.64C120.217 12.64 119.944 12.6867 119.65 12.78C119.357 12.86 119.077 13.0067 118.81 13.22C118.557 13.42 118.344 13.7067 118.17 14.08C117.997 14.44 117.91 14.9 117.91 15.46C117.91 15.9267 117.984 16.3333 118.13 16.68C118.277 17.0133 118.47 17.3 118.71 17.54C118.95 17.7667 119.224 17.94 119.53 18.06C119.837 18.1667 120.15 18.22 120.47 18.22ZM120.47 18.92C120.07 18.92 119.704 19 119.37 19.16C119.037 19.3067 118.75 19.52 118.51 19.8C118.284 20.0667 118.104 20.3867 117.97 20.76C117.85 21.12 117.79 21.5133 117.79 21.94C117.79 22.98 118.03 23.8067 118.51 24.42C119.004 25.0333 119.657 25.34 120.47 25.34C121.31 25.34 121.977 25.0333 122.47 24.42C122.964 23.8067 123.21 22.98 123.21 21.94C123.21 21.5133 123.144 21.12 123.01 20.76C122.89 20.3867 122.71 20.0667 122.47 19.8C122.23 19.52 121.937 19.3067 121.59 19.16C121.257 19 120.884 18.92 120.47 18.92Z" fill="white"></path><path d="M107 71.7288C106.787 71.995 106.595 72.2772 106.358 72.5168C101.42 77.5377 96.4777 82.556 91.5323 87.5716C90.7561 88.3596 90.3299 88.3703 89.5656 87.5929C83.7774 81.736 78.0128 75.8552 72.1825 70.0422C70.8262 68.6898 70.5486 67.0779 70.4447 65.3221C70.3868 64.3438 70.2684 63.3694 70.1816 62.4842C69.0516 62.7504 67.9453 62.9914 66.8521 63.2829C66.685 63.3281 66.5442 63.5957 66.4574 63.7887C64.8999 67.171 62.4912 69.6176 58.9169 70.7371C58.321 70.9234 58.0408 71.183 57.8645 71.7953C56.0228 78.4163 54.1364 85.0265 52.2802 91.6448C52.2142 91.9235 52.0906 92.1848 51.9176 92.4117C51.7446 92.6386 51.5261 92.8259 51.2765 92.9613C49.6387 93.8931 48.0219 94.8674 46.3946 95.8218C45.8513 96.14 45.358 96.0375 45.0489 95.4704C44.0658 93.6566 43.098 91.8316 42.1456 89.9956C41.8443 89.4139 42.0206 88.9107 42.5823 88.574C43.144 88.2372 43.686 87.955 44.2806 87.6235C43.9886 86.9966 43.7058 86.4056 43.4361 85.8092C43.1006 85.0651 43.2269 84.6112 43.8939 84.1666C44.4398 83.8033 44.9936 83.4518 45.5961 83.0605C45.3001 82.4309 45.0081 81.8212 44.7266 81.2076C44.3477 80.3836 44.4635 79.9737 45.1936 79.4638C45.6461 79.1484 46.096 78.8276 46.5604 78.5321C46.8235 78.367 46.9314 78.194 46.7393 77.9131C46.7288 77.8958 46.7275 77.8705 46.7156 77.8532C45.7303 76.3996 45.8395 74.9061 46.3723 73.2968C46.9274 71.6183 47.2708 69.8692 47.7378 68.1601C47.8364 67.7993 47.7601 67.5877 47.5155 67.3241C44.3359 63.9045 43.44 59.8832 44.7674 55.4519C46.0763 51.0753 49.098 48.3891 53.4918 47.3961C54.685 47.1298 55.9663 47.2377 57.2081 47.2204C57.5501 47.2204 57.779 47.1818 58.0171 46.8916C63.1858 40.5954 72.4719 42.1888 75.3608 49.8693C75.5002 50.2407 75.6975 50.3525 76.0462 50.3831C79.3731 50.6813 82.6987 51.0007 86.0269 51.2816C86.8318 51.3407 87.6006 51.6425 88.2343 52.1481C88.5675 52.4112 88.8842 52.6948 89.1828 52.9974C94.8991 58.7762 100.613 64.5572 106.324 70.3404C106.559 70.58 106.775 70.8396 107 71.0898V71.7288ZM104.618 71.3787C104.368 71.2189 104.116 71.1125 103.94 70.9367C98.6851 65.6309 93.4389 60.3167 88.2014 54.994C87.2214 53.9917 86.2216 53.3568 84.7614 53.2636C81.3029 53.0453 77.8576 52.6313 74.4031 52.3318C72.7534 52.1907 71.4629 53.5471 71.6142 55.211C71.9444 58.8529 72.3259 62.4909 72.6179 66.1354C72.7034 67.2003 73.1376 67.9684 73.8585 68.6938C79.2897 74.1603 84.7057 79.6382 90.1063 85.1277C90.2308 85.2696 90.3439 85.4214 90.4444 85.5816L104.618 71.3787ZM65.0354 61.0799C66.2193 57.2197 63.9961 51.3628 58.6578 49.8147C58.5644 50.0436 58.4565 50.2726 58.3763 50.5109C58.0553 51.4706 58.0592 51.4719 58.8906 52.023C59.6243 52.4887 60.1671 53.2068 60.4192 54.0451C60.6713 54.8835 60.6157 55.7858 60.2627 56.5861C59.9332 57.3822 59.3387 58.0366 58.5823 58.4356C57.8258 58.8346 56.9552 58.953 56.1215 58.7704C54.514 58.3977 53.305 57.0786 53.1787 55.5571C53.0353 53.8466 53.9338 52.3784 55.5282 51.6836C55.7032 51.6077 55.9321 51.4812 55.9821 51.3255C56.186 50.7025 56.3293 50.0596 56.4977 49.4087C55.8202 49.4087 55.1546 49.3195 54.5245 49.4233C50.624 50.061 47.9127 52.2693 46.7485 56.0789C45.5646 59.9631 46.4683 63.4359 49.4664 66.2406C50.0031 66.7424 50.157 67.2456 49.9649 67.9471C49.5203 69.5737 49.2282 71.2509 48.6705 72.8349C48.0272 74.6612 48.0535 76.3158 49.0796 77.989C49.5427 78.7424 49.3309 79.2242 48.5968 79.7194C48.0417 80.0948 47.4826 80.4635 46.913 80.8429C47.2195 81.4831 47.497 82.0582 47.768 82.6345C48.1627 83.4678 48.0311 83.9018 47.2576 84.4102C46.7314 84.755 46.2052 85.0944 45.7145 85.4086C45.708 85.5137 45.6987 85.5417 45.7066 85.555C45.9697 86.1141 46.2328 86.6718 46.4959 87.2309C46.9195 88.124 46.8025 88.5393 45.9842 89.0412C45.483 89.3473 44.9778 89.6468 44.4411 89.973L46.3249 93.4645C47.5089 92.7616 48.6507 92.116 49.7531 91.4079C50.0555 91.2031 50.2815 90.9018 50.3951 90.552C52.3499 83.7385 54.2855 76.9192 56.2017 70.0942C56.3899 69.4286 56.7385 69.1011 57.416 68.996C58.6722 68.7842 59.861 68.2742 60.8849 67.5078C62.3983 66.4186 63.6026 64.9466 64.3776 63.2389C64.1421 63.1817 63.983 63.1418 63.8225 63.1058C62.3717 62.7888 61.0077 62.1526 59.8273 61.2423C59.5996 61.0818 59.4418 60.8387 59.3867 60.5635C59.3316 60.2884 59.3834 60.0023 59.5313 59.7647C59.8352 59.2909 60.435 59.1777 60.9876 59.4985C61.152 59.593 61.302 59.7142 61.4598 59.8207C62.5212 60.5519 63.7547 60.9863 65.0354 61.0799ZM67.3651 61.0865C68.115 60.8017 68.778 60.5448 69.4449 60.3012C69.8396 60.1548 69.9711 59.9018 69.9212 59.4679C69.7896 58.387 69.7133 57.2969 69.5844 56.2133C69.3844 54.5322 69.5278 52.9175 70.8131 51.6969C71.4853 51.058 72.3469 50.624 73.1678 50.0676C72.5259 47.7382 69.6778 45.4806 66.9152 45.1345C63.7725 44.7432 60.8718 46.4177 60.0338 47.83C65.5234 50.4416 67.9821 54.7864 67.3704 61.0865H67.3651ZM56.9503 53.6017C55.9663 53.5884 55.3151 54.2007 55.3151 55.1418C55.3111 55.3504 55.3483 55.5578 55.4245 55.7517C55.5008 55.9456 55.6145 56.1221 55.7591 56.2709C55.9037 56.4197 56.0763 56.5378 56.2666 56.6182C56.4569 56.6986 56.6612 56.7397 56.8674 56.7391C57.2826 56.7412 57.6827 56.5821 57.9855 56.2946C58.2882 56.0071 58.4704 55.6131 58.4947 55.1937C58.4998 54.9857 58.4635 54.7788 58.3881 54.5852C58.3127 54.3916 58.1996 54.2154 58.0555 54.0669C57.9115 53.9184 57.7394 53.8007 57.5496 53.7208C57.3597 53.6409 57.1559 53.6004 56.9503 53.6017Z" fill="#BB8D7D"></path></svg> 