<?xml version="1.0" encoding="UTF-8"?> <svg xmlns="http://www.w3.org/2000/svg" width="140" height="140" viewBox="0 0 140 140" fill="none"><circle cx="120" cy="20" r="20" fill="#BB8D7D"></circle><circle cx="70" cy="70" r="69" stroke="#BB8D7D" stroke-width="2"></circle><path d="M123.271 21.58H125.171V22.64H123.271V26H121.651V22.64H115.631L122.531 12H123.271V21.58ZM117.191 21.58H121.651V14.68L117.191 21.58Z" fill="white"></path><path d="M78.4105 37C80.4459 38.4211 82.4906 39.8285 84.5138 41.266C89.3204 44.6812 94.1206 48.1042 98.9146 51.5349C100.186 52.4425 100.316 53.1634 99.4322 54.4513C98.4941 55.8243 97.5537 57.1914 96.6111 58.5525C96.1393 59.2322 95.6083 59.3969 95.0799 59.0454C94.5515 58.6939 94.4855 58.0733 94.9613 57.3731C95.8819 56.0206 96.8092 54.6751 97.7919 53.254L78.1652 39.249L64.0542 59.7594C64.3237 59.7841 64.5084 59.8143 64.6917 59.8157C66.444 59.8157 68.1962 59.802 69.9485 59.8281C70.4162 59.8349 70.644 59.6976 70.8435 59.2404C72.1671 56.2115 74.2388 53.9336 77.3417 52.7528C78.7677 52.2105 80.2275 52.0924 81.6967 52.5853C84.1984 53.427 85.7121 55.9053 85.6056 58.9713C85.5975 59.2184 85.6056 59.467 85.6056 59.8171H86.3159C87.8215 59.8171 89.3271 59.7992 90.8313 59.8171C93.7441 59.861 95.8832 62.0414 95.9088 65.0044C95.9304 67.4988 95.9304 69.9931 95.9088 72.4875C95.9088 72.9653 96.0329 73.174 96.5019 73.3635C98.5561 74.1708 99.7369 75.7264 99.8622 77.9741C99.9486 79.5748 99.9486 81.1791 99.8622 82.7797C99.7463 85.0905 98.5278 86.6599 96.4264 87.4851C96.0032 87.6512 95.9021 87.8476 95.9062 88.2691C95.9223 90.7172 95.9196 93.1654 95.9129 95.6135C95.9035 98.8291 93.7859 100.978 90.617 100.988C88.2811 100.988 63.4958 100.988 61.1586 100.988C61.0696 100.988 60.9793 100.988 60.889 100.988C60.1746 100.961 59.7177 100.541 59.7366 99.9303C59.7541 99.3413 60.1935 98.9362 60.8782 98.9321C62.675 98.9225 86.9252 98.8552 88.7192 98.9431C93.2265 99.1628 94.1 98.019 93.9059 93.6226C93.8304 91.9324 93.8938 90.2367 93.8938 88.5423V87.8009C91.9016 87.8009 89.9768 87.8146 88.052 87.8009C87.1327 87.7913 86.2027 87.8009 85.301 87.6567C81.9097 87.1075 79.2799 83.8013 79.381 80.2835C79.4848 76.6326 82.1644 73.4376 85.6164 73.1438C88.0426 72.9337 90.5079 73.0408 92.9543 73.0065C93.2414 73.0065 93.5271 73.0065 93.8978 73.0065V71.3053C93.8978 69.3144 93.8978 67.3235 93.8978 65.3326C93.8978 63.0945 92.7184 61.878 90.5415 61.878H47.4091C45.2188 61.878 44.0394 63.0849 44.0394 65.3106C44.0394 75.4015 44.0394 85.4919 44.0394 95.5819C44.0394 97.717 45.2349 98.9225 47.3511 98.9266C49.6884 98.9266 52.0243 98.9266 54.3601 98.9266C55.2525 98.9266 55.8307 99.6392 55.4465 100.33C55.3345 100.501 55.1873 100.646 55.0151 100.753C54.8429 100.861 54.6498 100.929 54.4491 100.953C51.8666 101.003 49.2813 101.027 46.7001 100.953C44.1418 100.894 42.0634 98.6644 42.0175 96.0281C41.9852 94.0153 42.0081 92.001 42.0081 89.9868C42.0081 81.7486 42.0054 73.5104 42 65.2722C42 63.2579 42.7333 61.6927 44.3844 60.5572C44.5812 60.4199 44.7066 60.0395 44.7093 59.7704C44.7308 56.7731 44.7227 53.7757 44.7227 50.7784C44.7227 50.5944 44.7227 50.4118 44.7227 50.2292C44.7618 49.5427 45.1756 49.0937 45.7485 49.0992C46.3213 49.1047 46.7338 49.5564 46.7365 50.247C46.7446 53.221 46.7365 56.1964 46.7365 59.1718V59.7622H49.6304V40.8953H46.7473V43.1938C46.7473 44.0849 46.7567 44.9787 46.7473 45.8698C46.7365 46.5838 46.3658 47.0122 45.7768 47.0273C45.1595 47.0424 44.7403 46.6044 44.7335 45.8616C44.72 44.0766 44.7146 42.2917 44.7335 40.5067C44.747 39.3891 45.3967 38.7918 46.5613 38.7904C50.4252 38.7849 54.2892 38.7849 58.1531 38.7904C62.1294 38.7904 66.1057 38.7904 70.0819 38.7904C71.5525 38.7904 72.0809 39.3232 72.0835 40.8006C72.0835 41.9429 72.0835 43.0853 72.0835 44.4089C72.306 44.1247 72.4421 43.9681 72.5594 43.7979C73.8493 41.9251 75.1203 40.0399 76.4332 38.1863C76.7513 37.7373 77.2082 37.3927 77.6005 37H78.4105ZM56.5949 59.8171C58.0776 59.8171 59.5064 59.7965 60.9379 59.8294C61.4029 59.8404 61.6644 59.6674 61.9205 59.2926C64.4181 55.6321 66.9198 51.9729 69.4565 48.3399C69.8849 47.7604 70.1031 47.0477 70.0738 46.3229C70.0307 44.5229 70.0604 42.7214 70.0604 40.8871H56.5949V59.8171ZM90.6036 85.7427C91.9514 85.7427 93.2993 85.7523 94.6472 85.7427C96.4682 85.7276 97.804 84.4383 97.8646 82.5779C97.9118 81.1389 97.9105 79.6945 97.8646 78.2569C97.8094 76.4514 96.5612 75.1209 94.7928 75.0839C92.0108 75.0276 89.2233 74.9932 86.444 75.0962C85.0675 75.1382 83.7636 75.7352 82.8191 76.7561C81.8746 77.777 81.3666 79.1381 81.4069 80.5403C81.5107 83.4868 83.8021 85.7249 86.7675 85.7414C88.0439 85.7482 89.3284 85.7427 90.6036 85.7427ZM54.4895 59.7841V40.8871H51.7506V59.7841H54.4895ZM83.5204 59.7841C83.5204 59.0523 83.5932 58.3836 83.5083 57.7356C83.205 55.4261 81.4096 54.0737 79.1586 54.4005C77.5115 54.6407 76.1784 55.4907 75.0058 56.6344C74.0823 57.532 73.3357 58.6011 72.806 59.7841H83.5204Z" fill="#BB8D7D"></path></svg> 