<?xml version="1.0" encoding="UTF-8"?> <svg xmlns="http://www.w3.org/2000/svg" width="140" height="140" viewBox="0 0 140 140" fill="none"><circle cx="120" cy="20" r="20" fill="#BB8D7D"></circle><circle cx="70" cy="70" r="69" stroke="#BB8D7D" stroke-width="2"></circle><path d="M124.45 14.12H122.77C122.69 13.6533 122.47 13.2933 122.11 13.04C121.75 12.7733 121.317 12.64 120.81 12.64C120.144 12.64 119.597 12.7933 119.17 13.1C118.744 13.4067 118.41 13.84 118.17 14.4C117.93 14.9467 117.764 15.6067 117.67 16.38C117.59 17.1533 117.55 18.0067 117.55 18.94H117.63L117.87 18.48C118.097 18.0267 118.457 17.6333 118.95 17.3C119.457 16.9667 120.124 16.8 120.95 16.8C121.444 16.8 121.937 16.8933 122.43 17.08C122.937 17.2533 123.39 17.5267 123.79 17.9C124.19 18.2733 124.517 18.7467 124.77 19.32C125.024 19.8933 125.15 20.58 125.15 21.38C125.15 22.0467 125.037 22.6733 124.81 23.26C124.584 23.8467 124.27 24.36 123.87 24.8C123.47 25.24 122.99 25.5867 122.43 25.84C121.87 26.0933 121.25 26.22 120.57 26.22C119.584 26.22 118.777 26 118.15 25.56C117.537 25.12 117.057 24.5533 116.71 23.86C116.377 23.1667 116.15 22.3933 116.03 21.54C115.91 20.6733 115.85 19.8133 115.85 18.96C115.85 18.0533 115.937 17.1667 116.11 16.3C116.297 15.4333 116.59 14.6667 116.99 14C117.404 13.32 117.93 12.78 118.57 12.38C119.21 11.9667 119.99 11.76 120.91 11.76C121.35 11.76 121.77 11.8067 122.17 11.9C122.57 11.9933 122.93 12.1333 123.25 12.32C123.57 12.5067 123.837 12.7533 124.05 13.06C124.264 13.3533 124.397 13.7067 124.45 14.12ZM117.75 21.52C117.75 22.2 117.837 22.78 118.01 23.26C118.184 23.74 118.404 24.14 118.67 24.46C118.937 24.7667 119.237 24.9933 119.57 25.14C119.917 25.2733 120.25 25.34 120.57 25.34C120.824 25.34 121.104 25.2933 121.41 25.2C121.73 25.1067 122.03 24.92 122.31 24.64C122.59 24.36 122.824 23.9733 123.01 23.48C123.197 22.9733 123.29 22.32 123.29 21.52C123.29 20.7867 123.204 20.1733 123.03 19.68C122.87 19.1867 122.657 18.7933 122.39 18.5C122.124 18.2067 121.83 18 121.51 17.88C121.19 17.76 120.884 17.7 120.59 17.7C120.257 17.7 119.924 17.7733 119.59 17.92C119.257 18.0533 118.95 18.2733 118.67 18.58C118.404 18.8733 118.184 19.2667 118.01 19.76C117.837 20.24 117.75 20.8267 117.75 21.52Z" fill="white"></path><path d="M31.7871 67.9757C32.22 66.9348 32.6726 65.8998 33.0839 64.851C35.1659 59.538 37.2419 54.2223 39.3121 48.9039C40.0126 47.1161 41.0831 46.6255 42.8541 47.3148C44.6252 48.0041 46.41 48.7311 48.1909 49.4323C49.2948 49.8673 49.8773 50.644 49.8734 51.8677C49.8878 51.9741 49.9259 52.0759 49.9848 52.1654C50.0438 52.2548 50.1221 52.3296 50.2138 52.3841C51.5968 53.0741 53.1165 53.4394 54.6591 53.4528C57.7387 53.5085 60.8538 53.4528 63.8469 54.4341C63.9574 54.4502 64.07 54.4439 64.1781 54.4156C64.2862 54.3873 64.3877 54.3375 64.4766 54.2693C64.7446 54.0517 64.9929 53.8104 65.2184 53.5482C66.716 51.9789 68.5323 51.4247 70.6477 51.7862C71.8284 51.9849 73.0189 52.1716 74.2055 52.3643C75.0024 52.4934 75.4472 52.9602 75.3862 53.6157C75.3173 54.303 74.7565 54.6944 73.9182 54.5772C72.584 54.3885 71.2537 54.162 69.9196 53.9534C69.3974 53.8582 68.86 53.8948 68.3552 54.0602C67.8505 54.2255 67.3941 54.5143 67.0269 54.901C63.8331 58.1011 60.4622 61.0867 56.7037 63.6035C56.0464 64.0445 56.0484 64.4597 56.6505 64.9622C57.9277 66.025 59.3701 66.1184 60.8873 65.6575C62.8551 65.0616 64.4667 63.8419 66.0036 62.509C67.4421 61.2556 68.6759 61.2814 70.0081 62.6024C73.1055 65.6734 76.7853 67.0599 81.1263 66.458C81.414 66.4126 81.7081 66.4292 81.9889 66.507C82.2698 66.5847 82.5311 66.7217 82.7557 66.909C85.668 69.094 88.5942 71.2672 91.5636 73.4761L96.3022 70.4051C94.2064 65.0417 92.1264 59.7181 90.0209 54.3289C89.2987 54.5911 88.6158 54.7897 87.9763 55.0817C85.8383 56.0691 83.4342 56.3048 81.148 55.7512C80.5753 55.6201 79.985 55.5644 79.4064 55.4611C78.6587 55.3261 78.271 54.8652 78.3418 54.1958C78.4127 53.5264 78.9145 53.1648 79.6741 53.2542C80.4769 53.3476 81.2798 53.4648 82.0709 53.6336C83.5659 53.9733 85.1285 53.8344 86.5418 53.2363C87.2876 52.9225 88.0629 52.6821 88.8067 52.3623C88.8975 52.3095 88.9749 52.2361 89.0326 52.1478C89.0904 52.0595 89.1269 51.9588 89.1393 51.8538C89.1393 50.6718 89.6765 49.8951 90.7686 49.4701C92.6637 48.7271 94.5449 47.9484 96.4399 47.2055C97.8174 46.6692 99.0099 47.1876 99.5569 48.5603C100.5 50.9241 101.42 53.2959 102.339 55.6677C102.644 56.4524 102.412 57.0841 101.761 57.3284C101.153 57.5588 100.594 57.2529 100.291 56.4841C99.4467 54.3467 98.6163 52.2054 97.778 50.066C97.6718 49.7938 97.5498 49.5257 97.4179 49.2138L91.3452 51.6392L98.9115 71.0467L105.012 68.6272C104.225 66.6269 103.471 64.6762 102.709 62.7255C102.556 62.3282 102.383 61.9508 102.255 61.5515C102.153 61.2822 102.157 60.9836 102.267 60.7174C102.377 60.4512 102.584 60.2378 102.845 60.1213C102.981 60.06 103.128 60.0279 103.277 60.0271C103.426 60.0264 103.573 60.057 103.71 60.117C103.846 60.177 103.969 60.2651 104.07 60.3756C104.17 60.4862 104.247 60.6167 104.295 60.759C105.248 63.1427 106.194 65.5264 107.088 67.9419C107.272 68.4384 107.262 68.9866 107.062 69.4766C106.862 69.9666 106.486 70.3622 106.009 70.5839C103.892 71.4936 101.741 72.3319 99.5865 73.1523C98.8839 73.4205 98.1952 73.2278 97.5616 72.7967C97.3864 72.6776 97.0381 72.5981 96.8846 72.6994C95.5682 73.5099 94.2773 74.366 92.9923 75.1983C93.8089 79.4434 91.8903 81.7536 87.8523 81.4596C87.0003 84.5545 85.8511 85.4464 82.5569 85.5477C82.4211 86.9958 81.8505 88.2433 80.6009 89.0815C79.3513 89.9198 78.0427 90.033 76.6102 89.596C76.1851 91.6579 75.0516 93.0047 72.9933 93.4517C70.8995 93.9046 69.4512 92.6571 67.9006 91.4394C67.6054 91.7811 67.3201 92.1069 67.0387 92.4326C65.9347 93.7298 64.5592 94.282 62.8964 93.8609C61.2336 93.4398 60.2635 92.3313 59.8955 90.6488C59.8561 90.47 59.6318 90.2039 59.4842 90.1959C57.0756 90.0867 55.7945 88.7279 55.34 86.4455C52.4965 86.0721 51.3807 85.1047 50.9104 82.6236C47.0318 81.9721 45.5815 79.6658 47.0456 76.3346C46.7957 76.1479 46.5379 75.9373 46.2585 75.7565C44.8298 74.8388 43.4051 73.9151 41.9568 73.0351C41.7463 72.906 41.4039 72.9775 41.1244 72.9874C40.4829 73.0093 39.7765 73.2477 39.2156 73.053C37.2006 72.3538 35.2387 71.5036 33.2512 70.7269C32.5034 70.4349 32.1334 69.8131 31.7891 69.1556L31.7871 67.9757ZM66.1689 82.6117C70.1282 82.5044 72.0232 86.8607 69.2997 89.8364C70.0868 90.3111 70.8189 90.8773 71.6414 91.207C72.6096 91.6043 73.7076 91.0084 74.1583 90.0668C74.6089 89.1252 74.3786 88.1837 73.5207 87.5123C72.9185 87.0415 72.3006 86.5905 71.7241 86.0919C71.0806 85.5357 71.1337 84.6796 71.791 84.2724C72.3065 83.9565 72.7749 84.1035 73.2157 84.4512C74.3826 85.357 75.5377 86.2787 76.7361 87.1428C77.844 87.9373 79.2156 87.7089 79.9259 86.674C80.6127 85.6808 80.3667 84.4512 79.308 83.6248C78.395 82.9137 77.4721 82.2164 76.5708 81.4914C75.9923 81.0265 75.8978 80.369 76.2894 79.8625C76.681 79.356 77.295 79.2904 77.9207 79.7373C78.2415 79.9658 78.5426 80.222 78.8554 80.4604C79.9082 81.2709 80.9433 82.1092 82.0256 82.8799C82.2615 83.0599 82.5306 83.1904 82.8172 83.2637C83.1038 83.3371 83.402 83.3518 83.6943 83.307C83.9867 83.2622 84.2671 83.1588 84.5192 83.0029C84.7714 82.847 84.99 82.6417 85.1623 82.3992C85.3248 82.1599 85.4387 81.8904 85.4975 81.6064C85.5563 81.3224 85.5588 81.0295 85.5048 80.7445C85.4508 80.4595 85.3415 80.1882 85.1831 79.9461C85.0246 79.704 84.8203 79.496 84.5818 79.3341C83.4598 78.5743 82.3889 77.7401 81.3762 76.8372C81.2261 76.6901 81.1098 76.5116 81.0353 76.3143C80.9609 76.1169 80.9301 75.9056 80.9453 75.695C80.9964 75.3731 81.4215 74.958 81.7481 74.8845C82.0748 74.811 82.5609 75.0136 82.8698 75.242C84.3929 76.3684 85.8688 77.5602 87.3958 78.6865C87.7873 78.9775 88.2409 79.1721 88.7201 79.2546C89.1877 79.3105 89.6604 79.2074 90.0635 78.9617C90.4666 78.716 90.777 78.3417 90.9457 77.8979C91.3177 76.9265 90.989 75.8539 90.0445 75.1467C87.3053 73.0941 84.5569 71.0553 81.7993 69.0305C81.5035 68.8308 81.1508 68.7351 80.7957 68.7583C76.0159 69.1953 71.9661 67.6122 68.55 64.2869C68.0954 63.8419 67.8278 63.82 67.3516 64.2471C65.675 65.7548 63.8508 67.05 61.6803 67.7472C59.5098 68.4445 57.418 68.3154 55.5171 66.9109C53.4095 65.3536 53.506 63.1526 55.6214 61.6131C57.7368 60.0736 59.7381 58.413 61.7866 56.8C61.956 56.6425 62.1151 56.4739 62.2628 56.2954C61.8893 56.2016 61.5109 56.1293 61.1293 56.0789C58.8053 55.9299 56.4813 55.7472 54.1534 55.6816C52.9077 55.6459 51.7172 55.4989 50.5739 54.9904C50.0662 54.7659 49.5467 54.5633 48.9878 54.3328L42.5649 70.7666L48.5136 74.5746C49.1236 73.8635 49.6766 73.1682 50.2846 72.5206C51.3709 71.3606 52.7169 70.9633 54.2439 71.3645C55.8024 71.7777 56.7627 72.8226 57.1484 74.4038C57.1996 74.6143 57.2606 74.8209 57.3176 75.0295C58.4609 74.9977 59.4508 75.2838 60.2989 76.0068C61.147 76.7299 61.5642 77.7291 61.7433 78.8037C64.3742 78.9646 65.7104 80.1128 66.1689 82.6117ZM40.0815 71.0467C42.6219 64.5411 45.1329 58.117 47.6674 51.6353L41.5672 49.2118L33.9812 68.6213L40.0815 71.0467ZM50.692 80.3372C50.8888 80.2439 51.3866 80.1605 51.6523 79.8665C52.7287 78.6746 53.7756 77.4688 54.7477 76.1975C55.3045 75.4705 55.0684 74.4534 54.3698 73.8674C53.6713 73.2814 52.6382 73.2616 52.0262 73.931C50.9635 75.0931 49.9501 76.3048 48.9741 77.5423C48.547 78.0826 48.5805 78.758 48.9052 79.3699C49.2299 79.9817 49.7612 80.3035 50.692 80.3412V80.3372ZM59.5806 79.1653C59.4901 78.3707 59.0592 77.6973 58.3999 77.4092C58.0483 77.2547 57.6568 77.2182 57.2831 77.305C56.9093 77.3919 56.5731 77.5977 56.3239 77.8919C55.4108 78.9269 54.5214 79.9837 53.6476 81.0504C52.9215 81.9363 52.9904 83.013 53.7736 83.6983C54.5568 84.3836 55.6312 84.2942 56.3869 83.4341C57.2783 82.4151 58.1579 81.3821 59.0021 80.3214C59.2579 79.9956 59.3897 79.5586 59.5806 79.1692V79.1653ZM64.0948 91.7811C64.3113 91.6679 64.8072 91.5467 65.0945 91.2328C66.1236 90.1065 67.1154 88.9425 68.056 87.7387C68.3235 87.3761 68.4422 86.9234 68.3876 86.4746C68.333 86.0259 68.1092 85.6157 67.7628 85.3292C67.0682 84.7213 65.9918 84.6935 65.3601 85.3927C64.3152 86.5369 63.3215 87.7308 62.3592 88.9484C61.9125 89.5146 61.9341 90.2019 62.2864 90.8375C62.6386 91.4732 63.164 91.7493 64.0948 91.7851V91.7811ZM64.0338 82.9435C63.9197 82.135 63.4946 81.4934 62.8098 81.2093C62.4699 81.0561 62.0897 81.0187 61.7269 81.1029C61.364 81.1872 61.0382 81.3884 60.7987 81.6761C59.8673 82.7276 58.9595 83.7989 58.0752 84.8902C57.3491 85.7821 57.4377 86.8547 58.2445 87.5321C59.0513 88.2095 60.1139 88.0724 60.8577 87.2183C61.7315 86.225 62.5993 85.206 63.4159 84.1631C63.6993 83.8195 63.8351 83.3626 64.0338 82.9474V82.9435Z" fill="#BB8D7D"></path></svg> 