<?xml version="1.0" encoding="UTF-8"?> <svg xmlns="http://www.w3.org/2000/svg" width="140" height="140" viewBox="0 0 140 140" fill="none"><circle cx="120" cy="20" r="20" fill="#BB8D7D"></circle><circle cx="70" cy="70" r="69" stroke="#BB8D7D" stroke-width="2"></circle><path d="M125.208 12L122.508 18.66H124.208V19.52H122.168L119.548 26H117.888L120.508 19.52H118.628V18.66H120.848L123.108 13.1H115.788V12H125.208Z" fill="white"></path><path fill-rule="evenodd" clip-rule="evenodd" d="M68.4602 71.272C68.0651 71.1127 67.6458 71.0214 67.2202 71.002C66.9209 70.9917 66.6215 71.0219 66.3302 71.092C65.6135 71.2466 64.9611 71.6164 64.4602 72.152L64.3402 72.282L64.1602 72.492L63.8602 72.852L63.5103 73.262L61.4602 76.122L60.1602 77.812L59.4102 78.812L54.8802 84.812L54.2902 85.582L53.4602 86.592L53.2802 86.382L53.0602 86.122L51.8602 84.532C51.4102 83.942 50.9702 83.362 50.5202 82.792C49.9538 82.0178 49.1053 81.4977 48.1584 81.3442C47.2115 81.1908 46.2422 81.4163 45.4602 81.972C45.0742 82.2454 44.7484 82.595 44.5028 82.9993C44.2572 83.4036 44.0971 83.8539 44.0325 84.3225C43.9678 84.7911 43.9999 85.268 44.1268 85.7237C44.2537 86.1794 44.4727 86.6042 44.7702 86.972C46.6702 89.532 48.6069 92.072 50.5802 94.592C50.9105 95.0544 51.3464 95.4312 51.8517 95.6912C52.357 95.9513 52.917 96.0869 53.4852 96.0869C54.0535 96.0869 54.6135 95.9513 55.1188 95.6912C55.6241 95.4312 56.06 95.0544 56.3902 94.592C60.9636 88.6653 65.4969 82.7086 69.9902 76.722C70.2436 76.3588 70.4361 75.9569 70.5602 75.532C70.6523 75.2397 70.7094 74.9376 70.7302 74.632C70.7678 73.9014 70.5666 73.1785 70.1571 72.5723C69.7476 71.9662 69.152 71.5098 68.4602 71.272ZM68.5202 75.322C68.4202 75.472 68.3202 75.622 68.2102 75.762L54.9502 93.172C54.7775 93.4128 54.5683 93.6254 54.3302 93.802C54.0641 93.9891 53.7455 94.0871 53.4202 94.082L53.3202 94.232L52.9102 93.992C52.6043 93.8494 52.3265 93.653 52.0902 93.412C50.1302 90.892 48.1936 88.3586 46.2802 85.812C46.1465 85.6498 46.0467 85.4624 45.9868 85.2609C45.9268 85.0594 45.908 84.848 45.9313 84.6391C45.9546 84.4302 46.0196 84.2281 46.1225 84.0448C46.2254 83.8614 46.3641 83.7007 46.5302 83.572C46.7062 83.4359 46.9077 83.3367 47.1228 83.28C47.3378 83.2234 47.5621 83.2105 47.7822 83.2422C48.0024 83.274 48.2139 83.3496 48.4042 83.4646C48.5946 83.5797 48.7598 83.7318 48.8902 83.912C49.6702 84.912 50.4402 85.912 51.2102 86.912L52.3703 88.432C53.1103 89.432 53.7302 89.432 54.4702 88.432C58.1769 83.5653 61.8869 78.692 65.6002 73.812C65.7774 73.495 66.0486 73.241 66.3765 73.0852C66.7044 72.9293 67.0727 72.8792 67.4302 72.942C67.6847 72.983 67.9251 73.086 68.1302 73.242C68.3351 73.3975 68.4997 73.5998 68.6102 73.832C68.7146 74.0636 68.7627 74.3166 68.7505 74.5704C68.7383 74.8241 68.6663 75.0714 68.5402 75.292L68.5202 75.322Z" fill="#BB8D7D"></path><circle cx="57" cy="84" r="22" stroke="#BB8D7D" stroke-width="2"></circle><path fill-rule="evenodd" clip-rule="evenodd" d="M87.0582 38.0092C86.5792 37.6731 86.1001 37.3371 85.6218 37H85.0072C84.913 37.0952 84.8138 37.1868 84.7146 37.2783C84.5007 37.4758 84.2866 37.6734 84.1217 37.9083C83.4258 38.9 82.7453 39.9035 82.0646 40.9073C81.7712 41.34 81.4777 41.7727 81.183 42.2046C81.1253 42.2891 81.0616 42.3692 80.978 42.4744C80.9326 42.5315 80.8813 42.5959 80.822 42.6724V39.9098C80.82 38.7787 80.4191 38.3708 79.3035 38.3708H70.2541C67.3228 38.3666 64.3915 38.3666 61.4603 38.3708C60.5768 38.3719 60.0839 38.8291 60.0737 39.6848C60.0594 41.0514 60.0635 42.418 60.0737 43.7846C60.0788 44.3534 60.3968 44.6887 60.8651 44.6771C61.312 44.6656 61.5932 44.3376 61.6014 43.7909C61.6061 43.336 61.6046 42.8802 61.603 42.4247C61.6022 42.197 61.6014 41.9694 61.6014 41.7421V39.9823H63.7886V54.4273H61.5932V53.9753C61.5932 53.2159 61.5939 52.4565 61.5946 51.6972C61.5959 50.1786 61.5973 48.6602 61.5932 47.1423C61.5911 46.6135 61.2783 46.2676 60.8437 46.2634C60.4091 46.2592 60.0952 46.603 60.0655 47.1286V47.5491C60.0655 48.0408 60.0658 48.5326 60.0661 49.0243C60.0671 50.8274 60.0682 52.6305 60.0553 54.4336C60.0533 54.6396 59.9582 54.9308 59.8089 55.0359C58.5563 55.9053 58 57.1037 58 58.6459C58.0007 59.7639 58.0014 60.882 58.002 62H59.5471V58.6753C59.5471 56.9713 60.4418 56.0472 62.1034 56.0472H94.8246C96.476 56.0472 97.3707 56.9786 97.3707 58.6921V63.265V64.5674H96.655C96.0827 64.5756 95.509 64.5734 94.9353 64.5712C93.6484 64.5662 92.3613 64.5613 91.0883 64.6726C88.4696 64.8975 86.4368 67.3437 86.358 70.139C86.2813 72.8322 88.2763 75.3636 90.849 75.7841C91.4569 75.8821 92.0817 75.8873 92.7026 75.8924C92.7805 75.893 92.8583 75.8936 92.936 75.8944C93.9057 75.9014 94.8755 75.8991 95.8602 75.8968C96.3582 75.8956 96.8601 75.8944 97.3677 75.8944V76.4621C97.3677 76.8686 97.363 77.2752 97.3582 77.6818C97.3479 78.5726 97.3376 79.4631 97.3769 80.3517C97.5241 83.7177 96.8615 84.5934 93.4422 84.4252C92.2443 84.366 87.1456 84.3988 85.0112 84.4125C84.7205 84.4144 84.4848 84.4159 84.3214 84.4168C83.802 84.4199 83.4686 84.73 83.4553 85.181C83.441 85.6488 83.7877 85.9705 84.3296 85.9905H84.5341H94.8819C97.2859 85.9831 98.8923 84.3379 98.8994 81.8759C98.9045 80.0016 98.9066 78.1273 98.8943 76.2529C98.8913 75.9302 98.9679 75.7799 99.289 75.6527C100.883 75.0209 101.808 73.8193 101.895 72.0501C101.961 70.8246 101.961 69.5963 101.895 68.3708C101.8 66.6499 100.905 65.4589 99.3463 64.8408C98.9904 64.6957 98.8964 64.5359 98.8964 64.1701C98.9127 62.2604 98.9127 60.3506 98.8964 58.4409C98.8769 56.1723 97.2542 54.503 95.0445 54.4693C94.2837 54.4602 93.5226 54.4633 92.7612 54.4663C92.3805 54.4678 91.9997 54.4693 91.619 54.4693H91.0801C91.0801 54.3733 91.0793 54.2872 91.0786 54.2076C91.0773 54.065 91.0762 53.9432 91.0801 53.8218C91.1609 51.4744 90.0126 49.5769 88.1147 48.9325C87.0002 48.5551 85.8928 48.6455 84.8109 49.0608C82.457 49.9648 80.8854 51.7088 79.8813 54.0278C79.7299 54.3779 79.5571 54.483 79.2023 54.4777C78.2139 54.4629 77.2254 54.4649 76.237 54.4669C75.8961 54.4676 75.5553 54.4683 75.2144 54.4683C75.1228 54.4676 75.0308 54.4573 74.9203 54.445C74.8629 54.4386 74.8006 54.4316 74.7307 54.4252L85.4357 38.7219L100.325 49.4445C99.5794 50.5325 98.8759 51.5627 98.1775 52.5981C97.8166 53.1343 97.8667 53.6094 98.2675 53.8785C98.6683 54.1477 99.0712 54.0215 99.4291 53.5012C100.144 52.459 100.858 51.4124 101.569 50.3611C102.24 49.3751 102.141 48.8232 101.177 48.1283C97.5398 45.5016 93.8982 42.8809 90.2518 40.2662C89.1925 39.5065 88.1254 38.7579 87.0582 38.0092ZM70.0075 54.4669C69.6983 54.4681 69.3867 54.4693 69.072 54.4693V39.976H79.2872C79.2872 40.3841 79.2853 40.79 79.2834 41.1945C79.2788 42.1819 79.2742 43.1601 79.2974 44.1378C79.3196 44.6928 79.1541 45.2385 78.8291 45.6821C76.9047 48.4637 75.0068 51.2652 73.1121 54.0678C72.9178 54.3548 72.7194 54.4872 72.3666 54.4788C71.5846 54.4606 70.8035 54.4637 70.0075 54.4669ZM95.8942 74.3203C95.5534 74.3195 95.2125 74.3187 94.8717 74.3187C94.5742 74.3187 94.2762 74.319 93.9778 74.3195C93.3057 74.3203 92.6321 74.3212 91.9615 74.3176C89.7119 74.305 87.9736 72.5915 87.8949 70.3355C87.8643 69.262 88.2497 68.2199 88.9662 67.4383C89.6828 66.6567 90.6719 66.1996 91.7161 66.1674C93.8246 66.0886 95.9392 66.1149 98.0497 66.158C99.3913 66.1863 100.338 67.205 100.38 68.5873C100.415 69.688 100.416 70.7939 100.38 71.8956C100.334 73.32 99.3207 74.3071 97.9393 74.3187C97.2576 74.3236 96.5759 74.3219 95.8942 74.3203ZM67.4748 39.976V54.4441H65.397V39.976H67.4748ZM89.5096 53.9154C89.504 54.0873 89.4982 54.2632 89.4982 54.4441H81.3701C81.7719 53.5383 82.3383 52.7198 83.0389 52.0326C83.9285 51.1569 84.9398 50.5062 86.1893 50.3222C87.8969 50.072 89.259 51.1075 89.489 52.8757C89.5326 53.2117 89.5214 53.5549 89.5096 53.9154Z" fill="#BB8D7D"></path><path d="M85.6218 37L85.7658 36.7956L85.701 36.75H85.6218V37ZM87.0582 38.0092L86.9146 38.2139L86.9146 38.2139L87.0582 38.0092ZM85.0072 37V36.75H84.9029L84.8296 36.8241L85.0072 37ZM84.7146 37.2783L84.8842 37.462L84.8842 37.462L84.7146 37.2783ZM84.1217 37.9083L83.9171 37.7646L83.9171 37.7647L84.1217 37.9083ZM82.0646 40.9073L82.2715 41.0476L82.2715 41.0476L82.0646 40.9073ZM81.183 42.2046L81.3895 42.3456L81.3895 42.3456L81.183 42.2046ZM80.978 42.4744L81.1736 42.63L81.1736 42.63L80.978 42.4744ZM80.822 42.6724H80.572V43.4029L81.0196 42.8256L80.822 42.6724ZM80.822 39.9098H81.072L81.072 39.9094L80.822 39.9098ZM70.2541 38.3708L70.2537 38.6208H70.2541V38.3708ZM61.4603 38.3708L61.4606 38.6208L61.4606 38.6208L61.4603 38.3708ZM60.0737 39.6848L59.8237 39.6819L59.8237 39.6822L60.0737 39.6848ZM60.0737 43.7846L59.8237 43.7865L59.8237 43.7869L60.0737 43.7846ZM60.8651 44.6771L60.8713 44.9271L60.8716 44.927L60.8651 44.6771ZM61.6014 43.7909L61.8513 43.7947L61.8514 43.7936L61.6014 43.7909ZM61.603 42.4247L61.853 42.4238L61.853 42.4238L61.603 42.4247ZM61.6014 39.9823V39.7323H61.3514V39.9823H61.6014ZM63.7886 39.9823H64.0386V39.7323H63.7886V39.9823ZM63.7886 54.4273V54.6773H64.0386V54.4273H63.7886ZM61.5932 54.4273H61.3432V54.6773H61.5932V54.4273ZM61.5946 51.6972L61.3446 51.6969L61.3446 51.6969L61.5946 51.6972ZM61.5932 47.1423L61.8432 47.1416L61.8432 47.1413L61.5932 47.1423ZM60.0655 47.1286L59.8155 47.1145V47.1286H60.0655ZM60.0661 49.0243L60.3161 49.0242L60.3161 49.0242L60.0661 49.0243ZM60.0553 54.4336L60.3053 54.4361L60.3053 54.4354L60.0553 54.4336ZM59.8089 55.0359L59.9514 55.2413L59.9528 55.2404L59.8089 55.0359ZM58 58.6459L57.75 58.6459L57.75 58.646L58 58.6459ZM58.002 62L57.752 62.0001L57.7521 62.25H58.002V62ZM59.5471 62V62.25H59.7971V62H59.5471ZM97.3707 64.5674V64.8174H97.6207V64.5674H97.3707ZM96.655 64.5674V64.3174L96.6514 64.3175L96.655 64.5674ZM94.9353 64.5712L94.9362 64.3212L94.9362 64.3212L94.9353 64.5712ZM91.0883 64.6726L91.1097 64.9217L91.11 64.9216L91.0883 64.6726ZM86.358 70.139L86.6079 70.1461L86.6079 70.146L86.358 70.139ZM90.849 75.7841L90.8087 76.0308L90.8092 76.0309L90.849 75.7841ZM92.7026 75.8924L92.7006 76.1423L92.7006 76.1423L92.7026 75.8924ZM92.936 75.8944L92.9334 76.1444L92.9342 76.1444L92.936 75.8944ZM95.8602 75.8968L95.8608 76.1468L95.8608 76.1468L95.8602 75.8968ZM97.3677 75.8944H97.6177V75.6444H97.3677V75.8944ZM97.3582 77.6818L97.6082 77.6847L97.6082 77.6847L97.3582 77.6818ZM97.3769 80.3517L97.6266 80.3407L97.6266 80.3406L97.3769 80.3517ZM93.4422 84.4252L93.4298 84.6749L93.4299 84.6749L93.4422 84.4252ZM85.0112 84.4125L85.0128 84.6625L85.0128 84.6625L85.0112 84.4125ZM84.3214 84.4168L84.3201 84.1668L84.3199 84.1668L84.3214 84.4168ZM83.4553 85.181L83.7052 85.1887L83.7052 85.1884L83.4553 85.181ZM84.3296 85.9905L84.3204 86.2405H84.3296V85.9905ZM94.8819 85.9905L94.8819 86.2405L94.8827 86.2405L94.8819 85.9905ZM98.8994 81.8759L99.1494 81.8767L99.1494 81.8766L98.8994 81.8759ZM98.8943 76.2529L99.1443 76.2513L99.1443 76.2505L98.8943 76.2529ZM99.289 75.6527L99.3811 75.8851L99.3811 75.8851L99.289 75.6527ZM101.895 72.0501L101.646 72.0367L101.646 72.0377L101.895 72.0501ZM101.895 68.3708L102.145 68.3574L102.145 68.357L101.895 68.3708ZM99.3463 64.8408L99.2519 65.0723L99.2541 65.0732L99.3463 64.8408ZM98.8964 64.1701L98.6464 64.1679V64.1701H98.8964ZM98.8964 58.4409L98.6464 58.443L98.6464 58.443L98.8964 58.4409ZM95.0445 54.4693L95.0483 54.2194L95.0475 54.2194L95.0445 54.4693ZM92.7612 54.4663L92.7622 54.7163L92.7622 54.7163L92.7612 54.4663ZM91.0801 54.4693H90.8301V54.7193H91.0801V54.4693ZM91.0786 54.2076L90.8286 54.2099L90.8286 54.2099L91.0786 54.2076ZM91.0801 53.8218L90.8302 53.8132L90.8302 53.8137L91.0801 53.8218ZM88.1147 48.9325L88.1951 48.6958L88.1949 48.6957L88.1147 48.9325ZM84.8109 49.0608L84.7213 48.8274L84.7213 48.8274L84.8109 49.0608ZM79.8813 54.0278L79.6519 53.9285L79.6518 53.9286L79.8813 54.0278ZM79.2023 54.4777L79.1985 54.7277L79.1986 54.7277L79.2023 54.4777ZM76.237 54.4669L76.2365 54.2169L76.2365 54.2169L76.237 54.4669ZM75.2144 54.4683L75.2125 54.7183H75.2144V54.4683ZM74.9203 54.445L74.8925 54.6935L74.8925 54.6935L74.9203 54.445ZM74.7307 54.4252L74.5242 54.2844L74.2851 54.635L74.7077 54.6741L74.7307 54.4252ZM85.4357 38.7219L85.5818 38.519L85.3736 38.3691L85.2291 38.5811L85.4357 38.7219ZM100.325 49.4445L100.531 49.5858L100.669 49.3843L100.471 49.2416L100.325 49.4445ZM98.1775 52.5981L97.9703 52.4584L97.9701 52.4585L98.1775 52.5981ZM99.4291 53.5012L99.6351 53.6428L99.6352 53.6426L99.4291 53.5012ZM101.569 50.3611L101.363 50.2205L101.362 50.221L101.569 50.3611ZM101.177 48.1283L101.03 48.331L101.03 48.3311L101.177 48.1283ZM90.2518 40.2662L90.1061 40.4693L90.1062 40.4693L90.2518 40.2662ZM69.072 54.4693H68.822V54.7193H69.072V54.4693ZM70.0075 54.4669L70.0085 54.7169L70.0085 54.7169L70.0075 54.4669ZM69.072 39.976V39.726H68.822V39.976H69.072ZM79.2872 39.976H79.5372V39.726H79.2872V39.976ZM79.2834 41.1945L79.0334 41.1933L79.0334 41.1933L79.2834 41.1945ZM79.2974 44.1378L79.0474 44.1438L79.0476 44.1478L79.2974 44.1378ZM78.8291 45.6821L78.6273 45.5343L78.6235 45.5399L78.8291 45.6821ZM73.1121 54.0678L73.3191 54.2079L73.3192 54.2078L73.1121 54.0678ZM72.3666 54.4788L72.3726 54.2289L72.3725 54.2289L72.3666 54.4788ZM95.8942 74.3203L95.8948 74.0703L95.8948 74.0703L95.8942 74.3203ZM93.9778 74.3195L93.9781 74.5695L93.9781 74.5695L93.9778 74.3195ZM91.9615 74.3176L91.9601 74.5676L91.9602 74.5676L91.9615 74.3176ZM87.8949 70.3355L87.645 70.3427L87.645 70.3443L87.8949 70.3355ZM91.7161 66.1674L91.7238 66.4173L91.7255 66.4173L91.7161 66.1674ZM98.0497 66.158L98.055 65.908L98.0548 65.908L98.0497 66.158ZM100.38 68.5873L100.13 68.5949L100.13 68.5952L100.38 68.5873ZM100.38 71.8956L100.13 71.8875L100.13 71.8875L100.38 71.8956ZM97.9393 74.3187L97.9411 74.5686L97.9414 74.5686L97.9393 74.3187ZM67.4748 54.4441V54.6941H67.7248V54.4441H67.4748ZM67.4748 39.976H67.7248V39.726H67.4748V39.976ZM65.397 54.4441H65.147V54.6941H65.397V54.4441ZM65.397 39.976V39.726H65.147V39.976H65.397ZM89.4982 54.4441V54.6941H89.7482V54.4441H89.4982ZM89.5096 53.9154L89.2597 53.9072L89.2597 53.9072L89.5096 53.9154ZM81.3701 54.4441L81.1416 54.3427L80.9857 54.6941H81.3701V54.4441ZM83.0389 52.0326L83.2139 52.2111L83.2142 52.2108L83.0389 52.0326ZM86.1893 50.3222L86.1531 50.0749L86.1529 50.0749L86.1893 50.3222ZM89.489 52.8757L89.7369 52.8435L89.7369 52.8434L89.489 52.8757ZM85.4778 37.2044C85.9564 37.5416 86.4356 37.8778 86.9146 38.2139L87.2018 37.8045C86.7227 37.4685 86.2439 37.1325 85.7658 36.7956L85.4778 37.2044ZM85.0072 37.25H85.6218V36.75H85.0072V37.25ZM84.8842 37.462C84.9827 37.3711 85.086 37.2758 85.1849 37.1759L84.8296 36.8241C84.74 36.9147 84.645 37.0024 84.5451 37.0946L84.8842 37.462ZM84.3263 38.0519C84.4732 37.8427 84.6666 37.6628 84.8842 37.462L84.5451 37.0946C84.3347 37.2888 84.1 37.5041 83.9171 37.7646L84.3263 38.0519ZM82.2715 41.0476C82.9524 40.0435 83.6317 39.0417 84.3264 38.0519L83.9171 37.7647C83.2198 38.7583 82.5382 39.7634 81.8577 40.767L82.2715 41.0476ZM81.3895 42.3456C81.6844 41.9133 81.9781 41.4803 82.2715 41.0476L81.8577 40.767C81.5642 41.1997 81.271 41.6322 80.9765 42.0637L81.3895 42.3456ZM81.1736 42.63C81.2559 42.5266 81.3257 42.439 81.3895 42.3456L80.9765 42.0637C80.9249 42.1392 80.8673 42.2119 80.7823 42.3188L81.1736 42.63ZM81.0196 42.8256C81.0779 42.7504 81.1283 42.6871 81.1736 42.63L80.7823 42.3188C80.7369 42.3758 80.6848 42.4414 80.6244 42.5193L81.0196 42.8256ZM80.572 39.9098V42.6724H81.072V39.9098H80.572ZM79.3035 38.6208C79.8422 38.6208 80.1347 38.7217 80.3023 38.8916C80.471 39.0627 80.571 39.3623 80.572 39.9103L81.072 39.9094C81.0709 39.3262 80.9695 38.8563 80.6584 38.5406C80.3461 38.2239 79.8805 38.1208 79.3035 38.1208V38.6208ZM70.2541 38.6208H79.3035V38.1208H70.2541V38.6208ZM61.4606 38.6208C64.3917 38.6166 67.3227 38.6166 70.2537 38.6208L70.2544 38.1208C67.3229 38.1166 64.3914 38.1166 61.4599 38.1208L61.4606 38.6208ZM60.3237 39.6878C60.3282 39.3073 60.4386 39.0517 60.611 38.8893C60.7853 38.725 61.0596 38.6213 61.4606 38.6208L61.46 38.1208C60.9774 38.1214 60.5636 38.2469 60.2681 38.5254C59.9706 38.8058 59.8294 39.2067 59.8237 39.6819L60.3237 39.6878ZM60.3237 43.7828C60.3135 42.4168 60.3094 41.0519 60.3237 39.6875L59.8237 39.6822C59.8094 41.051 59.8135 42.4193 59.8237 43.7865L60.3237 43.7828ZM60.859 44.4272C60.6896 44.4314 60.5659 44.3746 60.4812 44.2809C60.3934 44.1837 60.3259 44.0221 60.3237 43.7824L59.8237 43.7869C59.8267 44.1158 59.9207 44.4063 60.1102 44.6161C60.3029 44.8294 60.5724 44.9344 60.8713 44.9271L60.859 44.4272ZM61.3514 43.7872C61.3479 44.0206 61.2866 44.1782 61.2061 44.2741C61.1296 44.3654 61.0179 44.4231 60.8587 44.4272L60.8716 44.927C61.1592 44.9196 61.4115 44.8075 61.5894 44.5953C61.7633 44.3877 61.8467 44.1079 61.8513 43.7947L61.3514 43.7872ZM61.353 42.4255C61.3546 42.8814 61.3561 43.3355 61.3514 43.7883L61.8514 43.7936C61.8562 43.3366 61.8546 42.879 61.853 42.4238L61.353 42.4255ZM61.3514 41.7421C61.3514 41.9699 61.3522 42.198 61.353 42.4255L61.853 42.4238C61.8522 42.1961 61.8514 41.9689 61.8514 41.7421H61.3514ZM61.3514 39.9823V41.7421H61.8514V39.9823H61.3514ZM63.7886 39.7323H61.6014V40.2323H63.7886V39.7323ZM64.0386 54.4273V39.9823H63.5386V54.4273H64.0386ZM61.5932 54.6773H63.7886V54.1773H61.5932V54.6773ZM61.3432 53.9753V54.4273H61.8432V53.9753H61.3432ZM61.3446 51.6969C61.3439 52.4563 61.3432 53.2158 61.3432 53.9753H61.8432C61.8432 53.216 61.8439 52.4567 61.8446 51.6974L61.3446 51.6969ZM61.3432 47.1429C61.3473 48.6603 61.3459 50.1783 61.3446 51.6969L61.8446 51.6974C61.8459 50.1789 61.8473 48.6601 61.8432 47.1416L61.3432 47.1429ZM60.8413 46.5134C60.9887 46.5149 61.1071 46.5723 61.1918 46.67C61.2785 46.7699 61.3424 46.9273 61.3432 47.1432L61.8432 47.1413C61.842 46.8285 61.7484 46.5485 61.5695 46.3423C61.3886 46.1338 61.1332 46.0162 60.8461 46.0134L60.8413 46.5134ZM60.3151 47.1427C60.3274 46.9252 60.3972 46.7657 60.4883 46.6649C60.5767 46.567 60.6953 46.512 60.8413 46.5134L60.8461 46.0134C60.5574 46.0107 60.3018 46.1254 60.1172 46.3298C59.9353 46.5312 59.8333 46.8064 59.8159 47.1145L60.3151 47.1427ZM60.3155 47.5491V47.1286H59.8155V47.5491H60.3155ZM60.3161 49.0242C60.3158 48.5324 60.3155 48.0408 60.3155 47.5491H59.8155C59.8155 48.0409 59.8158 48.5327 59.8161 49.0245L60.3161 49.0242ZM60.3053 54.4354C60.3182 52.6312 60.3171 50.8271 60.3161 49.0242L59.8161 49.0245C59.8171 50.8277 59.8182 52.6299 59.8053 54.4318L60.3053 54.4354ZM59.9528 55.2404C60.0873 55.1457 60.1712 54.9917 60.2208 54.8619C60.273 54.7254 60.3039 54.5718 60.3053 54.4361L59.8053 54.4311C59.8046 54.5015 59.787 54.5964 59.7538 54.6834C59.718 54.7769 59.6797 54.8211 59.6649 54.8315L59.9528 55.2404ZM58.25 58.6459C58.25 57.1761 58.7736 56.0588 59.9514 55.2413L59.6663 54.8306C58.3389 55.7519 57.75 57.0314 57.75 58.6459H58.25ZM58.252 61.9999C58.2514 60.8818 58.2507 59.7638 58.25 58.6457L57.75 58.646C57.7507 59.7641 57.7514 60.8821 57.752 62.0001L58.252 61.9999ZM58.002 62.25H59.5471V61.75H58.002V62.25ZM59.2971 58.6753V62H59.7971V58.6753H59.2971ZM62.1034 55.7972C61.2272 55.7972 60.5148 56.0417 60.0229 56.548C59.5321 57.0532 59.2971 57.7817 59.2971 58.6753H59.7971C59.7971 57.8649 60.0095 57.2793 60.3815 56.8965C60.7523 56.5148 61.318 56.2972 62.1034 56.2972V55.7972ZM94.8246 55.7972H62.1034V56.2972H94.8246V55.7972ZM97.6207 58.6921C97.6207 57.7941 97.386 57.0619 96.8971 56.5538C96.4067 56.0441 95.6967 55.7972 94.8246 55.7972V56.2972C95.6039 56.2972 96.167 56.516 96.5368 56.9004C96.9081 57.2864 97.1207 57.8766 97.1207 58.6921H97.6207ZM97.6207 63.265V58.6921H97.1207V63.265H97.6207ZM97.6207 64.5674V63.265H97.1207V64.5674H97.6207ZM96.655 64.8174H97.3707V64.3174H96.655V64.8174ZM94.9343 64.8212C95.5077 64.8234 96.0836 64.8256 96.6585 64.8174L96.6514 64.3175C96.0817 64.3255 95.5103 64.3234 94.9362 64.3212L94.9343 64.8212ZM91.11 64.9216C92.3698 64.8115 93.6455 64.8162 94.9343 64.8212L94.9362 64.3212C93.6514 64.3163 92.3527 64.3111 91.0665 64.4235L91.11 64.9216ZM86.6079 70.146C86.6837 67.4552 88.6389 65.1339 91.1097 64.9217L91.0669 64.4235C88.3002 64.6612 86.1898 67.2323 86.1081 70.1319L86.6079 70.146ZM90.8893 75.5373C88.4486 75.1384 86.5345 72.7229 86.6079 70.1461L86.1081 70.1318C86.0281 72.9415 88.104 75.5887 90.8087 76.0308L90.8893 75.5373ZM92.7047 75.6424C92.0803 75.6372 91.4747 75.6318 90.8888 75.5373L90.8092 76.0309C91.439 76.1325 92.083 76.1373 92.7006 76.1423L92.7047 75.6424ZM92.9386 75.6445C92.8606 75.6436 92.7825 75.643 92.7047 75.6424L92.7006 76.1423C92.7785 76.143 92.856 76.1436 92.9334 76.1444L92.9386 75.6445ZM95.8596 75.6468C94.8747 75.6491 93.9061 75.6514 92.9378 75.6445L92.9342 76.1444C93.9053 76.1514 94.8763 76.1491 95.8608 76.1468L95.8596 75.6468ZM97.3677 75.6444C96.8597 75.6444 96.3576 75.6456 95.8596 75.6468L95.8608 76.1468C96.3588 76.1456 96.8604 76.1444 97.3677 76.1444V75.6444ZM97.6177 76.4621V75.8944H97.1177V76.4621H97.6177ZM97.6082 77.6847C97.6129 77.2784 97.6177 76.8703 97.6177 76.4621H97.1177C97.1177 76.8669 97.113 77.2721 97.1083 77.6789L97.6082 77.6847ZM97.6266 80.3406C97.5877 79.4602 97.5979 78.5767 97.6082 77.6847L97.1083 77.6789C97.0979 78.5685 97.0874 79.466 97.1271 80.3627L97.6266 80.3406ZM93.4299 84.6749C94.2924 84.7173 94.9993 84.6952 95.5705 84.5779C96.1452 84.4599 96.5972 84.2423 96.9302 83.8839C97.2618 83.5269 97.4517 83.0554 97.5514 82.4741C97.6508 81.8947 97.6637 81.1877 97.6266 80.3407L97.1271 80.3626C97.1637 81.1987 97.1489 81.8634 97.0586 82.3896C96.9687 82.9139 96.8069 83.282 96.5638 83.5436C96.3221 83.8038 95.9765 83.9841 95.4699 84.0881C94.9597 84.1929 94.3016 84.2172 93.4544 84.1755L93.4299 84.6749ZM85.0128 84.6625C87.1534 84.6487 92.2411 84.6161 93.4298 84.6749L93.4545 84.1755C92.2475 84.1158 87.1378 84.1488 85.0096 84.1625L85.0128 84.6625ZM84.3228 84.6668C84.4863 84.6659 84.7222 84.6644 85.0128 84.6625L85.0096 84.1625C84.7188 84.1644 84.4833 84.1659 84.3201 84.1668L84.3228 84.6668ZM83.7052 85.1884C83.71 85.0256 83.7706 84.902 83.8654 84.8172C83.9618 84.7308 84.1125 84.668 84.3229 84.6668L84.3199 84.1668C84.0109 84.1686 83.7352 84.2625 83.5318 84.4447C83.3266 84.6285 83.2139 84.8855 83.2054 85.1736L83.7052 85.1884ZM84.3388 85.7406C84.114 85.7323 83.9534 85.6626 83.8538 85.5703C83.7574 85.4809 83.7001 85.3547 83.7052 85.1887L83.2055 85.1734C83.1962 85.4751 83.3052 85.7436 83.514 85.9371C83.7195 86.1275 84.0033 86.2286 84.3204 86.2403L84.3388 85.7406ZM84.5341 85.7405H84.3296V86.2405H84.5341V85.7405ZM94.8819 85.7405H84.5341V86.2405H94.8819V85.7405ZM98.6494 81.8752C98.646 83.0512 98.2616 84.0123 97.6106 84.679C96.9601 85.3453 96.0245 85.737 94.8811 85.7405L94.8827 86.2405C96.1432 86.2366 97.2129 85.802 97.9683 85.0283C98.7233 84.2552 99.1457 83.1627 99.1494 81.8767L98.6494 81.8752ZM98.6443 76.2546C98.6566 78.1277 98.6545 80.0011 98.6494 81.8753L99.1494 81.8766C99.1545 80.0021 99.1566 78.1268 99.1443 76.2513L98.6443 76.2546ZM99.1969 75.4202C99.0152 75.4922 98.8584 75.5874 98.7584 75.7465C98.6605 75.9025 98.6427 76.0805 98.6443 76.2553L99.1443 76.2505C99.1429 76.1027 99.1619 76.0441 99.1818 76.0124C99.1997 75.9839 99.2418 75.9403 99.3811 75.8851L99.1969 75.4202ZM101.646 72.0377C101.604 72.8804 101.364 73.5742 100.956 74.1299C100.547 74.6861 99.9584 75.1185 99.1969 75.4203L99.3811 75.8851C100.214 75.5551 100.885 75.0708 101.359 74.426C101.833 73.7806 102.099 72.9891 102.145 72.0625L101.646 72.0377ZM101.646 68.3842C101.711 69.6008 101.711 70.8201 101.646 72.0367L102.145 72.0635C102.211 70.829 102.211 69.5918 102.145 68.3574L101.646 68.3842ZM99.2541 65.0732C99.9967 65.3677 100.569 65.7935 100.968 66.3396C101.366 66.8855 101.601 67.5653 101.646 68.3846L102.145 68.357C102.095 67.4554 101.834 66.6793 101.372 66.0449C100.909 65.4107 100.254 64.932 99.4385 64.6084L99.2541 65.0732ZM98.6464 64.1701C98.6464 64.3685 98.6704 64.5598 98.7788 64.7252C98.8878 64.8916 99.056 64.9924 99.2519 65.0723L99.4407 64.6093C99.2807 64.5441 99.224 64.4924 99.197 64.4512C99.1694 64.409 99.1464 64.3375 99.1464 64.1701H98.6464ZM98.6464 58.443C98.6627 60.3513 98.6627 62.2596 98.6464 64.1679L99.1464 64.1722C99.1627 62.2611 99.1627 60.3499 99.1464 58.4387L98.6464 58.443ZM95.0407 54.7193C97.1092 54.7508 98.6281 56.3048 98.6464 58.443L99.1464 58.4387C99.1258 56.0399 97.3991 54.2552 95.0483 54.2194L95.0407 54.7193ZM92.7622 54.7163C93.5239 54.7133 94.2831 54.7102 95.0415 54.7193L95.0475 54.2194C94.2844 54.2102 93.5212 54.2133 92.7602 54.2163L92.7622 54.7163ZM91.619 54.7193C92.0003 54.7193 92.3816 54.7178 92.7622 54.7163L92.7602 54.2163C92.3794 54.2178 91.9992 54.2193 91.619 54.2193V54.7193ZM91.0801 54.7193H91.619V54.2193H91.0801V54.7193ZM90.8286 54.2099C90.8293 54.2896 90.8301 54.3746 90.8301 54.4693H91.3301C91.3301 54.372 91.3293 54.2849 91.3286 54.2053L90.8286 54.2099ZM90.8302 53.8137C90.8261 53.9412 90.8273 54.0684 90.8286 54.2099L91.3286 54.2053C91.3273 54.0617 91.3262 53.9452 91.33 53.8299L90.8302 53.8137ZM88.0344 49.1692C89.8053 49.7706 90.9081 51.5503 90.8302 53.8132L91.3299 53.8304C91.4136 51.3985 90.2198 49.3833 88.1951 48.6958L88.0344 49.1692ZM84.9005 49.2942C85.9381 48.8959 86.9848 48.8138 88.0346 49.1693L88.1949 48.6957C87.0156 48.2964 85.8475 48.3951 84.7213 48.8274L84.9005 49.2942ZM80.1107 54.1272C81.0936 51.857 82.6213 50.1695 84.9006 49.2941L84.7213 48.8274C82.2928 49.7601 80.6772 51.5606 79.6519 53.9285L80.1107 54.1272ZM79.1986 54.7277C79.3979 54.7307 79.588 54.704 79.7546 54.5955C79.9204 54.4875 80.0265 54.322 80.1107 54.127L79.6518 53.9286C79.5847 54.0837 79.5288 54.1458 79.4816 54.1766C79.4352 54.2068 79.3615 54.2301 79.206 54.2278L79.1986 54.7277ZM76.2375 54.7169C77.2263 54.7149 78.2126 54.7129 79.1985 54.7277L79.2061 54.2278C78.2151 54.2129 77.2246 54.2149 76.2365 54.2169L76.2375 54.7169ZM75.2144 54.7183C75.5556 54.7183 75.8967 54.7176 76.2375 54.7169L76.2365 54.2169C75.8956 54.2176 75.555 54.2183 75.2144 54.2183V54.7183ZM74.8925 54.6935C75.0002 54.7055 75.1056 54.7175 75.2125 54.7183L75.2163 54.2183C75.1401 54.2177 75.0614 54.2092 74.948 54.1965L74.8925 54.6935ZM74.7077 54.6741C74.7749 54.6803 74.8351 54.687 74.8925 54.6935L74.948 54.1965C74.8908 54.1902 74.8263 54.183 74.7538 54.1762L74.7077 54.6741ZM85.2291 38.5811L74.5242 54.2844L74.9373 54.566L85.6423 38.8627L85.2291 38.5811ZM100.471 49.2416L85.5818 38.519L85.2896 38.9248L100.179 49.6473L100.471 49.2416ZM98.3848 52.7379C99.0827 51.7032 99.7858 50.6736 100.531 49.5858L100.119 49.3032C99.3731 50.3913 98.6692 51.4221 97.9703 52.4584L98.3848 52.7379ZM98.4069 53.671C98.2639 53.575 98.197 53.4553 98.1861 53.3186C98.1744 53.173 98.2246 52.9759 98.3849 52.7378L97.9701 52.4585C97.7695 52.7565 97.6642 53.0651 97.6876 53.3584C97.7118 53.6606 97.8702 53.9129 98.1282 54.0861L98.4069 53.671ZM99.2231 53.3595C99.0605 53.5959 98.9102 53.7085 98.7878 53.7479C98.6778 53.7833 98.5557 53.7709 98.4069 53.671L98.1282 54.0861C98.3801 54.2553 98.6599 54.3144 98.941 54.2239C99.2097 54.1374 99.4398 53.9267 99.6351 53.6428L99.2231 53.3595ZM101.362 50.221C100.651 51.2718 99.9378 52.318 99.223 53.3597L99.6352 53.6426C100.351 52.6 101.064 51.5529 101.776 50.5013L101.362 50.221ZM101.03 48.3311C101.501 48.6703 101.696 48.932 101.74 49.179C101.784 49.426 101.69 49.7392 101.363 50.2205L101.776 50.5017C102.119 49.997 102.312 49.5413 102.232 49.092C102.153 48.6429 101.816 48.2812 101.323 47.9255L101.03 48.3311ZM90.1062 40.4693C93.7523 43.0839 97.3937 45.7045 101.03 48.331L101.323 47.9257C97.6859 45.2988 94.0441 42.6779 90.3975 40.063L90.1062 40.4693ZM86.9146 38.2139C87.982 38.9627 89.048 39.7106 90.1061 40.4693L90.3975 40.063C89.337 39.3025 88.2688 38.5531 87.2018 37.8045L86.9146 38.2139ZM69.072 54.7193C69.3873 54.7193 69.6993 54.7181 70.0085 54.7169L70.0065 54.2169C69.6972 54.2181 69.3862 54.2193 69.072 54.2193V54.7193ZM68.822 39.976V54.4693H69.322V39.976H68.822ZM79.2872 39.726H69.072V40.226H79.2872V39.726ZM79.5334 41.1956C79.5353 40.7913 79.5372 40.3848 79.5372 39.976H79.0372C79.0372 40.3834 79.0353 40.7888 79.0334 41.1933L79.5334 41.1956ZM79.5473 44.1319C79.5242 43.1583 79.5288 42.1836 79.5334 41.1956L79.0334 41.1933C79.0288 42.1801 79.0242 43.1619 79.0475 44.1438L79.5473 44.1319ZM79.0308 45.8298C79.3895 45.3401 79.5716 44.7387 79.5472 44.1279L79.0476 44.1478C79.0675 44.6469 78.9186 45.1368 78.6274 45.5344L79.0308 45.8298ZM73.3192 54.2078C75.2139 51.4052 77.1111 48.6047 79.0347 45.8243L78.6235 45.5399C76.6982 48.3226 74.7997 51.1252 72.905 53.9277L73.3192 54.2078ZM72.3607 54.7287C72.5711 54.7337 72.7568 54.6967 72.9236 54.6007C73.0871 54.5065 73.2108 54.3678 73.3191 54.2079L72.9051 53.9276C72.819 54.0547 72.7464 54.1257 72.674 54.1674C72.6049 54.2072 72.515 54.2323 72.3726 54.2289L72.3607 54.7287ZM70.0085 54.7169C70.8051 54.7137 71.5827 54.7107 72.3608 54.7287L72.3725 54.2289C71.5864 54.2106 70.8019 54.2137 70.0065 54.2169L70.0085 54.7169ZM94.8717 74.5687C95.2122 74.5687 95.5527 74.5695 95.8936 74.5703L95.8948 74.0703C95.554 74.0695 95.2129 74.0687 94.8717 74.0687V74.5687ZM93.9781 74.5695C94.2765 74.569 94.5744 74.5687 94.8717 74.5687V74.0687C94.5741 74.0687 94.2758 74.0691 93.9775 74.0695L93.9781 74.5695ZM91.9602 74.5676C92.6318 74.5712 93.3062 74.5703 93.9781 74.5695L93.9775 74.0695C93.3052 74.0703 92.6325 74.0712 91.9629 74.0676L91.9602 74.5676ZM87.645 70.3443C87.7284 72.7319 89.574 74.5542 91.9601 74.5676L91.9629 74.0676C89.8498 74.0558 88.2189 72.4511 88.1447 70.3268L87.645 70.3443ZM88.7819 67.2693C88.0208 68.0995 87.6126 69.205 87.645 70.3427L88.1448 70.3284C88.1161 69.3189 88.4785 68.3402 89.1505 67.6072L88.7819 67.2693ZM91.7084 65.9175C90.5957 65.9518 89.5433 66.4389 88.7819 67.2693L89.1505 67.6072C89.8223 66.8745 90.7481 66.4473 91.7238 66.4173L91.7084 65.9175ZM98.0548 65.908C95.9436 65.8649 93.8229 65.8385 91.7068 65.9176L91.7255 66.4173C93.8263 66.3387 95.9348 66.3648 98.0446 66.4079L98.0548 65.908ZM100.63 68.5798C100.584 67.0784 99.5432 65.9395 98.055 65.908L98.0444 66.4079C99.2394 66.4332 100.092 67.3316 100.13 68.5949L100.63 68.5798ZM100.63 71.9037C100.666 70.7964 100.665 69.6852 100.63 68.5795L100.13 68.5952C100.165 69.6908 100.166 70.7913 100.13 71.8875L100.63 71.9037ZM97.9414 74.5686C99.4595 74.5559 100.58 73.4595 100.63 71.9036L100.13 71.8875C100.088 73.1804 99.182 74.0582 97.9372 74.0687L97.9414 74.5686ZM95.8936 74.5703C96.5751 74.5719 97.258 74.5736 97.9411 74.5686L97.9375 74.0687C97.2572 74.0736 96.5767 74.0719 95.8948 74.0703L95.8936 74.5703ZM67.7248 54.4441V39.976H67.2248V54.4441H67.7248ZM65.397 54.6941H67.4748V54.1941H65.397V54.6941ZM65.147 39.976V54.4441H65.647V39.976H65.147ZM67.4748 39.726H65.397V40.226H67.4748V39.726ZM89.7482 54.4441C89.7482 54.2679 89.7538 54.0961 89.7595 53.9236L89.2597 53.9072C89.2541 54.0786 89.2482 54.2585 89.2482 54.4441H89.7482ZM81.3701 54.6941H89.4982V54.1941H81.3701V54.6941ZM82.8638 51.8541C82.1405 52.5637 81.556 53.4084 81.1416 54.3427L81.5986 54.5455C81.9877 53.6683 82.5361 52.876 83.2139 52.2111L82.8638 51.8541ZM86.1529 50.0749C84.8336 50.2691 83.7762 50.956 82.8635 51.8544L83.2142 52.2108C84.0807 51.3579 85.0459 50.7433 86.2257 50.5696L86.1529 50.0749ZM89.7369 52.8434C89.6144 51.9017 89.1871 51.1378 88.5458 50.644C87.9041 50.15 87.067 49.941 86.1531 50.0749L86.2255 50.5696C87.0193 50.4533 87.7169 50.6369 88.2407 51.0402C88.7648 51.4436 89.1336 52.0815 89.2411 52.9079L89.7369 52.8434ZM89.7595 53.9236C89.7712 53.5669 89.7836 53.2031 89.7369 52.8435L89.2411 52.9079C89.2817 53.2202 89.2717 53.5428 89.2597 53.9072L89.7595 53.9236Z" fill="#BB8D7D"></path></svg> 