<?xml version="1.0" encoding="UTF-8"?> <svg xmlns="http://www.w3.org/2000/svg" width="140" height="140" viewBox="0 0 140 140" fill="none"><circle cx="120" cy="20" r="20" fill="#BB8D7D"></circle><circle cx="70" cy="70" r="69" stroke="#BB8D7D" stroke-width="2"></circle><path d="M118.395 17.02C118.769 16.8733 119.102 16.7667 119.395 16.7C119.702 16.62 120.042 16.58 120.415 16.58C121.055 16.58 121.649 16.6867 122.195 16.9C122.742 17.1 123.215 17.4 123.615 17.8C124.029 18.1867 124.349 18.6533 124.575 19.2C124.815 19.7467 124.935 20.36 124.935 21.04C124.935 21.8667 124.795 22.6 124.515 23.24C124.249 23.88 123.875 24.42 123.395 24.86C122.929 25.3 122.375 25.64 121.735 25.88C121.109 26.1067 120.435 26.22 119.715 26.22C119.102 26.22 118.535 26.1333 118.015 25.96C117.509 25.7733 117.069 25.5267 116.695 25.22C116.322 24.9133 116.022 24.5467 115.795 24.12C115.582 23.6933 115.469 23.24 115.455 22.76H116.915C116.929 23.12 117.002 23.46 117.135 23.78C117.269 24.0867 117.449 24.36 117.675 24.6C117.915 24.8267 118.202 25.0067 118.535 25.14C118.869 25.2733 119.249 25.34 119.675 25.34C120.062 25.34 120.449 25.2667 120.835 25.12C121.222 24.96 121.569 24.7133 121.875 24.38C122.195 24.0333 122.449 23.6 122.635 23.08C122.835 22.5467 122.935 21.9067 122.935 21.16C122.935 20.1067 122.655 19.2533 122.095 18.6C121.535 17.9467 120.695 17.62 119.575 17.62C119.309 17.62 118.942 17.6467 118.475 17.7C118.009 17.7533 117.489 17.9267 116.915 18.22L118.695 12H124.755L124.355 13.1H119.555L118.395 17.02Z" fill="white"></path><path d="M39 46.7875C39.3184 45.803 39.746 44.8485 40.7468 44.401C41.4216 44.1027 42.1934 43.964 42.9364 43.8581C43.543 43.7731 44.1799 43.8417 44.8091 43.8417C44.891 43.3793 44.9274 42.9632 45.0411 42.5679C45.2304 41.8837 45.6285 41.273 46.1816 40.8183C46.7347 40.3636 47.4163 40.0866 48.1345 40.0249C48.376 40.005 48.6185 39.997 48.8608 40.001H89.8493C91.8205 40.001 93.1943 40.9108 93.6599 42.5799C93.782 43.06 93.8386 43.5541 93.8282 44.049C93.8373 52.5835 93.8398 61.1176 93.8358 69.6511V70.5117C94.2103 70.0717 94.4832 69.7227 94.785 69.402C95.2734 68.866 95.9194 68.4928 96.6332 68.3343C97.347 68.1759 98.0933 68.2399 98.7684 68.5175C100.116 69.047 101.088 70.3849 100.964 71.8317C100.91 72.5799 100.655 73.3006 100.224 73.9198C95.7256 79.9009 91.1923 85.857 86.624 91.7883C85.0834 93.7915 82.3782 93.7974 80.8149 91.8137C78.8345 89.302 76.9087 86.7559 75.0027 84.1965C73.7608 82.5215 74.0929 80.3931 75.6957 79.2222C77.2984 78.0514 79.4774 78.375 80.7845 80.0351C81.6473 81.1329 82.4813 82.256 83.329 83.3657C83.4472 83.5148 83.5777 83.664 83.7247 83.8415C86.4102 80.3215 89.0623 76.8477 91.7023 73.365C91.8167 73.1825 91.8737 72.9707 91.866 72.7564C91.8751 63.1112 91.8751 53.466 91.866 43.8208C91.866 42.5381 91.2261 41.9236 89.9266 41.9236C76.2036 41.9236 62.4802 41.9236 48.7562 41.9236C47.4506 41.9236 46.8441 42.5291 46.841 43.8298C46.841 46.5085 46.841 49.1878 46.841 51.8676C46.841 52.0257 46.841 52.1853 46.841 52.3434C46.8031 53.0444 46.4271 53.468 45.8509 53.468C45.2747 53.468 44.8834 53.0504 44.8774 52.3404C44.8622 50.4148 44.8774 48.4893 44.8774 46.5652V45.8448C43.9297 45.8448 43.0456 45.7881 42.1737 45.8642C41.5414 45.9194 41.0774 46.5294 40.9788 47.2066C40.9588 47.3843 40.9517 47.5633 40.9576 47.742C40.9576 62.9049 40.9576 78.0688 40.9576 93.2336C40.9506 93.53 40.9868 93.8259 41.0653 94.1121C41.2442 94.6893 41.6582 95.1025 42.2677 95.1562C43.1032 95.2188 43.9478 95.1711 44.8743 95.1711V94.3388C44.8743 81.9154 44.8743 69.4915 44.8743 57.0671C44.8692 56.79 44.8839 56.5128 44.9183 56.2378C44.9517 56.0223 45.0611 55.8252 45.2273 55.681C45.3935 55.5368 45.606 55.4547 45.8275 55.449C46.0491 55.4434 46.2656 55.5145 46.4392 55.6499C46.6129 55.7854 46.7325 55.9766 46.7774 56.19C46.8242 56.463 46.846 56.7395 46.8426 57.0163C46.8426 70.274 46.8426 83.5317 46.8426 96.7894C46.8426 97.0281 46.8426 97.2667 46.8517 97.5039C46.856 97.9049 47.015 98.2894 47.2964 98.5796C47.5779 98.8697 47.9609 99.0439 48.368 99.067C48.5491 99.0799 48.7308 99.0839 48.9124 99.0789C62.5332 99.0789 76.1556 99.0789 89.7795 99.0789C90.1008 99.0879 90.4219 99.0528 90.7333 98.9745C91.4915 98.7538 91.8645 98.1482 91.866 97.1489C91.866 94.0525 91.866 90.9566 91.866 87.8611C91.866 87.6822 91.866 87.5032 91.866 87.3242C91.9009 86.659 92.2709 86.2473 92.8289 86.2428C93.3869 86.2383 93.7963 86.6649 93.8145 87.3138C93.8403 88.2653 93.8221 89.2184 93.8221 90.1715C93.8221 92.2954 93.8221 94.4194 93.8221 96.5433C93.8221 99.1953 93.2565 100.032 90.8167 101H47.8403C47.6887 100.942 47.5507 100.875 47.4006 100.825C46.8094 100.651 46.2756 100.325 45.8533 99.8825C45.431 99.4396 45.1351 98.8948 44.9956 98.3033C44.9153 97.9251 44.8576 97.5427 44.8228 97.1578C44.1662 97.1578 43.5369 97.219 42.9258 97.1414C42.2192 97.0519 41.4853 96.9386 40.8424 96.6582C39.7991 96.2018 39.326 95.2397 39 94.2121V46.7875ZM83.6049 91.4781L83.705 91.3289C84.4086 91.3289 84.8484 90.9277 85.2381 90.4161C89.6628 84.6111 94.089 78.8091 98.5167 73.01C98.628 72.8678 98.7293 72.7183 98.82 72.5625C98.9502 72.3433 99.0247 72.0964 99.0372 71.8428C99.0497 71.5892 98.9998 71.3364 98.8918 71.1058C98.7837 70.8753 98.6207 70.6737 98.4166 70.5184C98.2124 70.363 97.9732 70.2584 97.7191 70.2134C96.8867 70.0463 96.3544 70.4789 95.8889 71.0904C92.1809 75.9627 88.4679 80.835 84.7498 85.7074C84.0128 86.6739 83.3987 86.6694 82.6587 85.7074C81.4957 84.186 80.3478 82.6527 79.1711 81.1433C78.5646 80.3647 77.5623 80.2484 76.8162 80.8092C76.1309 81.3268 75.9929 82.2903 76.563 83.0465C78.4827 85.5955 80.41 88.1401 82.3782 90.6533C82.6709 91.0068 83.1895 91.2066 83.6049 91.4781Z" fill="#BB8D7D"></path><path d="M69.3261 53.4711H55.5274C55.3052 53.4806 55.0827 53.4736 54.8617 53.4502C54.6366 53.4321 54.4264 53.3323 54.272 53.1702C54.1175 53.0081 54.0299 52.7953 54.0262 52.5732C53.9928 52.0765 54.2673 51.7424 54.7495 51.6066C54.9482 51.5615 55.1523 51.544 55.356 51.5544C64.6765 51.5544 73.997 51.5544 83.3175 51.5544C83.5382 51.543 83.7595 51.5636 83.9741 51.6156C84.1829 51.6748 84.3648 51.8023 84.4899 51.9771C84.6149 52.1518 84.6756 52.3634 84.6618 52.5766C84.648 52.7899 84.5606 52.9922 84.414 53.1499C84.2675 53.3077 84.0705 53.4115 83.8558 53.4442C83.6356 53.4721 83.4134 53.4806 83.1916 53.4696L69.3261 53.4711Z" fill="#BB8D7D"></path><path d="M65.4658 64.3994H75.3327C75.5543 64.3901 75.7763 64.3966 75.9969 64.4187C76.2177 64.4466 76.4217 64.5494 76.5736 64.7095C76.7256 64.8695 76.8159 65.0768 76.8291 65.2954C76.8422 65.514 76.7773 65.7302 76.6455 65.9068C76.5138 66.0833 76.3235 66.2091 76.1076 66.2623C75.8706 66.3092 75.6286 66.3262 75.3873 66.313C68.7487 66.313 62.1101 66.313 55.4716 66.313H55.2896C54.4814 66.3025 54.0204 65.9505 54.0235 65.345C54.0265 64.7394 54.4784 64.3964 55.2957 64.3964C58.6852 64.3964 62.0753 64.3974 65.4658 64.3994Z" fill="#BB8D7D"></path><path d="M65.4331 71.4454C62.1052 71.4454 58.7763 71.4454 55.4464 71.4454C55.2248 71.4601 55.0022 71.4476 54.7838 71.4081C54.2985 71.2873 54.0165 70.9606 54.0256 70.461C54.0223 70.2484 54.096 70.0417 54.2335 69.8777C54.371 69.7137 54.5634 69.6032 54.7762 69.5661C54.9943 69.5276 55.2162 69.5146 55.4373 69.5273C62.0961 69.5273 68.7549 69.5273 75.4137 69.5273C75.6349 69.5146 75.8568 69.5276 76.0748 69.5661C76.2874 69.6125 76.4775 69.7288 76.6138 69.8959C76.75 70.0629 76.8243 70.2707 76.8243 70.4849C76.8243 70.699 76.75 70.9068 76.6138 71.0738C76.4775 71.2409 76.2874 71.3572 76.0748 71.4036C75.8568 71.4421 75.6349 71.4551 75.4137 71.4424C72.0889 71.4464 68.762 71.4474 65.4331 71.4454Z" fill="#BB8D7D"></path><path d="M62.2012 83.6386C64.4181 83.6386 66.6355 83.6386 68.8535 83.6386C69.1147 83.6317 69.3759 83.6557 69.6313 83.7102C70.0772 83.8236 70.3668 84.1815 70.2864 84.5842C70.2197 84.9169 69.924 85.248 69.6435 85.4792C69.4767 85.6164 69.1416 85.5776 68.8853 85.5776C64.4111 85.5776 59.9358 85.5776 55.4595 85.5776H55.3989C54.5058 85.5776 54.0145 85.2167 54.0236 84.5902C54.0327 83.9638 54.5027 83.6416 55.3701 83.6386C56.8864 83.6386 58.3937 83.6386 59.9055 83.6386H62.2012Z" fill="#BB8D7D"></path><path d="M69.2718 58.6004H62.6211C62.4186 58.6071 62.2158 58.5986 62.0146 58.575C61.8005 58.5539 61.6014 58.4572 61.4542 58.3028C61.307 58.1484 61.2217 57.9468 61.2139 57.7353C61.1802 57.5263 61.226 57.3124 61.3427 57.1346C61.4594 56.9567 61.6387 56.8276 61.8463 56.7718C62.0979 56.7035 62.3588 56.6738 62.6196 56.6838C67.0949 56.6838 71.5701 56.6838 76.0454 56.6838H76.2258C77.028 56.6957 77.495 57.0522 77.495 57.6533C77.495 58.2543 77.0477 58.6004 76.2243 58.6019C73.9083 58.6048 71.5908 58.6044 69.2718 58.6004Z" fill="#BB8D7D"></path><path d="M57.6505 88.7874C58.4572 88.7874 59.2624 88.7755 60.0676 88.7874C60.7591 88.8023 61.1594 89.1543 61.1715 89.7121C61.1867 90.2938 60.7697 90.6966 60.0615 90.7055C58.432 90.7234 56.8009 90.7234 55.1683 90.7055C54.4662 90.7055 54.0219 90.2968 54.0234 89.736C54.025 89.1752 54.4556 88.7993 55.1744 88.7859C55.9977 88.777 56.8241 88.7874 57.6505 88.7874Z" fill="#BB8D7D"></path><path d="M83.0585 66.3056C82.8181 66.3198 82.5771 66.3198 82.3367 66.3056C82.0939 66.2866 81.8671 66.1791 81.7008 66.0042C81.5344 65.8292 81.4405 65.5995 81.4375 65.3599C81.4373 65.2362 81.4619 65.1135 81.5099 64.9991C81.5578 64.8847 81.6283 64.7806 81.7171 64.693C81.806 64.6053 81.9115 64.5357 82.0277 64.4881C82.1439 64.4406 82.2685 64.416 82.3943 64.4158C82.8146 64.3949 83.2357 64.3949 83.6559 64.4158C84.2807 64.4412 84.6658 64.8126 84.6658 65.3599C84.6658 65.9073 84.2807 66.2772 83.659 66.3205C83.4603 66.3354 83.2586 66.3205 83.0524 66.3205L83.0585 66.3056Z" fill="#BB8D7D"></path><path d="M83.0708 69.5348C83.2922 69.5348 83.5136 69.5184 83.7319 69.5348C84.3097 69.5885 84.6736 69.9718 84.666 70.4983C84.6705 70.7387 84.5782 70.9712 84.4092 71.145C84.2402 71.3187 84.0082 71.4198 83.7638 71.426C83.2838 71.4618 82.8017 71.4618 82.3217 71.426C82.0783 71.4089 81.8508 71.3004 81.6863 71.123C81.5218 70.9457 81.4328 70.713 81.4377 70.4729C81.444 70.234 81.5407 70.0059 81.709 69.8335C81.8773 69.661 82.105 69.5566 82.3475 69.5407C82.5874 69.5288 82.8278 69.5288 83.0678 69.5407L83.0708 69.5348Z" fill="#BB8D7D"></path></svg> 