<?xml version="1.0" encoding="UTF-8"?> <svg xmlns="http://www.w3.org/2000/svg" width="140" height="140" viewBox="0 0 140 140" fill="none"><circle cx="120" cy="20" r="20" fill="#BB8D7D"></circle><circle cx="70" cy="70" r="69" stroke="#BB8D7D" stroke-width="2"></circle><path d="M125.341 26H116.141L119.921 21.78C120.254 21.38 120.607 20.9467 120.981 20.48C121.367 20.0133 121.721 19.52 122.041 19C122.361 18.48 122.627 17.94 122.841 17.38C123.054 16.82 123.161 16.2467 123.161 15.66C123.161 14.74 122.914 14.0067 122.421 13.46C121.941 12.9133 121.321 12.64 120.561 12.64C120.107 12.64 119.727 12.7267 119.421 12.9C119.127 13.0733 118.881 13.3067 118.681 13.6C118.494 13.88 118.354 14.2133 118.261 14.6C118.167 14.9733 118.101 15.3667 118.061 15.78H116.061C116.061 15.22 116.174 14.6933 116.401 14.2C116.627 13.7067 116.941 13.28 117.341 12.92C117.754 12.56 118.234 12.28 118.781 12.08C119.327 11.8667 119.921 11.76 120.561 11.76C121.281 11.76 121.927 11.8667 122.501 12.08C123.074 12.28 123.554 12.56 123.941 12.92C124.327 13.28 124.621 13.7 124.821 14.18C125.034 14.6467 125.141 15.14 125.141 15.66C125.141 16.3133 125.074 16.8733 124.941 17.34C124.821 17.8067 124.621 18.26 124.341 18.7C124.074 19.1267 123.721 19.58 123.281 20.06C122.854 20.54 122.334 21.1133 121.721 21.78L119.121 24.56H125.341V26Z" fill="white"></path><path d="M54.3107 58.4961H40.9644C40.7495 58.5053 40.5343 58.4986 40.3205 58.4759C40.1028 58.4584 39.8995 58.3619 39.7501 58.2051C39.6008 58.0483 39.516 57.8425 39.5124 57.6277C39.4801 57.1473 39.7456 56.8241 40.212 56.6928C40.4042 56.6492 40.6017 56.6322 40.7986 56.6424C49.8135 56.6424 58.8285 56.6424 67.8434 56.6424C68.0568 56.6313 68.2708 56.6513 68.4784 56.7015C68.6803 56.7587 68.8564 56.8821 68.9773 57.0511C69.0983 57.2202 69.1569 57.4247 69.1436 57.631C69.1302 57.8373 69.0457 58.033 68.9039 58.1855C68.7622 58.3381 68.5717 58.4385 68.364 58.4702C68.1511 58.4972 67.9361 58.5054 67.7216 58.4947L54.3107 58.4961Z" fill="#BB8D7D"></path><path d="M50.577 67.7166H60.1204C60.3347 67.7076 60.5494 67.7139 60.7628 67.7354C60.9763 67.7623 61.1737 67.8617 61.3206 68.0166C61.4676 68.1714 61.555 68.3718 61.5677 68.5832C61.5803 68.7947 61.5176 69.0038 61.3902 69.1746C61.2627 69.3453 61.0787 69.467 60.8698 69.5184C60.6407 69.5638 60.4066 69.5803 60.1732 69.5675C53.7523 69.5675 47.3313 69.5675 40.9104 69.5675H40.7344C39.9527 69.5574 39.5068 69.2169 39.5098 68.6312C39.5127 68.0455 39.9498 67.7137 40.7403 67.7137C44.0187 67.7137 47.2976 67.7147 50.577 67.7166Z" fill="#BB8D7D"></path><path d="M50.5435 75.3756C47.3247 75.3756 44.1049 75.3756 40.8842 75.3756C40.6699 75.3898 40.4546 75.3777 40.2433 75.3396C39.774 75.2227 39.5012 74.9068 39.51 74.4235C39.5068 74.2179 39.578 74.0179 39.7111 73.8593C39.8441 73.7007 40.0301 73.5939 40.236 73.5579C40.4469 73.5207 40.6615 73.5081 40.8754 73.5204C47.3159 73.5204 53.7564 73.5204 60.1968 73.5204C60.4107 73.5081 60.6254 73.5207 60.8363 73.5579C61.0419 73.6028 61.2257 73.7154 61.3575 73.8769C61.4893 74.0385 61.5611 74.2394 61.5611 74.4466C61.5611 74.6537 61.4893 74.8547 61.3575 75.0163C61.2257 75.1778 61.0419 75.2903 60.8363 75.3352C60.6254 75.3724 60.4107 75.385 60.1968 75.3728C56.981 75.3766 53.7632 75.3776 50.5435 75.3756Z" fill="#BB8D7D"></path><path d="M47.4429 87.6745C49.5871 87.6745 51.7318 87.6745 53.877 87.6745C54.1297 87.6677 54.3823 87.691 54.6294 87.7437C55.0606 87.8534 55.3407 88.1996 55.263 88.5891C55.1984 88.9108 54.9124 89.2311 54.6411 89.4547C54.4798 89.5874 54.1557 89.5499 53.9078 89.5499C49.5802 89.5499 45.2517 89.5499 40.9222 89.5499H40.8636C39.9997 89.5499 39.5245 89.2008 39.5333 88.5949C39.5421 87.989 39.9968 87.6774 40.8357 87.6745C42.3023 87.6745 43.7602 87.6745 45.2224 87.6745H47.4429Z" fill="#BB8D7D"></path><path d="M54.0835 63.7649H47.6508C47.4549 63.7714 47.2588 63.7632 47.0641 63.7404C46.8571 63.7199 46.6645 63.6264 46.5222 63.4771C46.3798 63.3277 46.2972 63.1327 46.2898 62.9282C46.2571 62.726 46.3015 62.5191 46.4143 62.3471C46.5272 62.1752 46.7006 62.0502 46.9013 61.9962C47.1447 61.9302 47.397 61.9015 47.6493 61.9111C51.9779 61.9111 56.3064 61.9111 60.6349 61.9111H60.8094C61.5853 61.9227 62.037 62.2674 62.037 62.8488C62.037 63.4302 61.6043 63.7649 60.808 63.7663C58.5679 63.7692 56.3264 63.7687 54.0835 63.7649Z" fill="#BB8D7D"></path><path d="M43.0414 92.6545C43.8216 92.6545 44.6004 92.643 45.3792 92.6545C46.048 92.669 46.4352 93.0094 46.4469 93.549C46.4616 94.1116 46.0583 94.5011 45.3733 94.5098C43.7972 94.5271 42.2196 94.5271 40.6405 94.5098C39.9615 94.5098 39.5317 94.1145 39.5332 93.5721C39.5347 93.0296 39.9512 92.6661 40.6464 92.6531C41.4428 92.6444 42.2421 92.6545 43.0414 92.6545Z" fill="#BB8D7D"></path><path d="M67.5588 46H34.8047C32.5955 46 30.8047 47.7909 30.8047 50V101C30.8047 103.209 32.5955 105 34.8047 105H74.1981C76.4073 105 78.1981 103.209 78.1981 101V62.4426" stroke="#BB8D7D" stroke-width="2" stroke-linecap="round" stroke-linejoin="round"></path><circle cx="66.1079" cy="90.9755" r="3.38525" fill="#BB8D7D"></circle><rect x="88.0059" y="90" width="23" height="28" rx="3" transform="rotate(-90 88.0059 90)" stroke="#BB8D7D" stroke-width="2"></rect><rect x="93.0059" y="85" width="8" height="8" rx="1" transform="rotate(-90 93.0059 85)" stroke="#BB8D7D" stroke-width="2"></rect><rect x="105.006" y="78" width="6" height="6" rx="1" transform="rotate(-90 105.006 78)" stroke="#BB8D7D" stroke-width="2"></rect><rect x="73.0059" y="57" width="23" height="28" rx="3" transform="rotate(-90 73.0059 57)" stroke="#BB8D7D" stroke-width="2"></rect><path d="M90.5059 45.866L84.5059 49.3301C83.8392 49.715 83.0059 49.2339 83.0059 48.4641L83.0059 41.5359C83.0059 40.7661 83.8392 40.285 84.5059 40.6699L90.5059 44.134C91.1725 44.5189 91.1725 45.4811 90.5059 45.866Z" stroke="#BB8D7D" stroke-width="2"></path></svg> 