<?xml version="1.0" encoding="UTF-8"?> <svg xmlns="http://www.w3.org/2000/svg" width="140" height="140" viewBox="0 0 140 140" fill="none"><circle cx="70" cy="70" r="70" fill="#BB8D7D"></circle><circle cx="70" cy="70" r="55" stroke="white" stroke-width="2"></circle><path d="M104.919 90.6285C105.301 90.6285 105.617 90.612 105.931 90.6285C107.179 90.703 107.98 91.5407 107.995 92.7905C108.007 93.711 107.995 94.6314 107.995 95.5518C107.985 96.9457 107.151 97.7767 105.744 97.7767C99.204 97.7767 92.6634 97.7767 86.1223 97.7767H53.0344C51.2823 97.7767 50.5368 97.0334 50.5352 95.2853C50.5352 94.494 50.5352 93.701 50.5352 92.9081C50.5352 91.4745 51.3616 90.6501 52.8029 90.6219C53.0525 90.6219 53.2988 90.6219 53.6129 90.6219V89.7942C53.6129 78.5946 53.6129 67.3967 53.6129 56.2004C53.6129 54.5731 54.4922 53.3862 55.9666 53.1461C56.4927 53.0782 57.0274 53.1309 57.5303 53.3001C60.0691 54.1162 62.5931 54.982 65.1221 55.8296C65.3601 55.9091 65.6014 55.9786 65.9254 56.0779V55.3164C65.9254 53.1114 65.9254 50.9063 65.9254 48.6947C65.9254 46.6486 67.2064 45.359 69.2312 45.359C73.9332 45.359 78.6357 45.359 83.3388 45.359H84.228C84.228 44.9898 84.2181 44.6571 84.228 44.326C84.2925 42.4951 85.5619 41.2403 87.3884 41.2369C92.1345 41.227 96.88 41.227 101.625 41.2369C103.665 41.2369 104.922 42.5149 104.931 44.5826C104.931 59.6338 104.931 74.685 104.931 89.7363L104.919 90.6285ZM102.868 90.5921V89.9382C102.868 74.8638 102.868 59.7894 102.868 44.715C102.868 43.6158 102.554 43.298 101.465 43.298H87.7454C86.552 43.298 86.2793 43.5695 86.2777 44.773C86.2777 51.025 86.2777 57.2776 86.2777 63.5307C86.2777 63.7558 86.2975 63.9826 86.3074 64.1846C86.3664 64.2101 86.4279 64.2296 86.4909 64.2425C88.1802 64.2425 89.8689 64.2459 91.557 64.2525C93.7455 64.2525 94.8761 65.3798 94.8777 67.5633V90.5921H102.868ZM75.6809 64.2028C75.6809 63.6151 75.6495 63.0589 75.6809 62.5093C75.7288 61.8256 75.4594 61.4664 74.7949 61.2445C68.9056 59.2878 63.0245 57.3013 57.1418 55.3247C56.0245 54.9489 55.6542 55.2188 55.6542 56.4173V90.5756H71.7569V67.6842C71.7569 67.4491 71.7569 67.2124 71.7569 66.979C71.7812 66.3532 72.0145 65.7538 72.4194 65.2766C72.8243 64.7993 73.3773 64.472 73.9899 64.3468C74.5238 64.2376 75.0643 64.2525 75.6809 64.2028ZM73.8147 90.5689H78.1916V89.8207C78.1916 87.422 78.1916 85.0199 78.1916 82.6262C78.1916 81.1363 79.0181 80.3234 80.4925 80.3201C82.3305 80.3201 84.1685 80.3201 86.0066 80.3201C87.6496 80.3201 88.4463 81.1114 88.4496 82.7569C88.4496 85.1341 88.4496 87.5108 88.4496 89.8869V90.5822H92.8232V67.56C92.8232 66.5668 92.5885 66.3118 91.5835 66.3118C86.0738 66.3118 80.5591 66.3118 75.0395 66.3118C74.056 66.3118 73.8246 66.5502 73.8246 67.5104V90.5689H73.8147ZM84.152 64.2177V47.4597C84.0696 47.4436 83.9862 47.4325 83.9024 47.4266C78.9856 47.4266 74.0693 47.4266 69.1535 47.4266C68.3419 47.4266 67.9766 47.8272 67.975 48.6847C67.975 51.1894 67.9866 53.6941 67.9601 56.1988C67.9601 56.6739 68.1171 56.8609 68.5502 56.9967C70.9017 57.7637 73.2478 58.55 75.5883 59.3557C77.0759 59.8656 77.7156 60.7959 77.7255 62.3355C77.7255 62.9513 77.7255 63.5655 77.7255 64.2144L84.152 64.2177ZM105.918 92.7326H52.6377V95.6892H105.918V92.7326ZM86.3653 90.5805V82.4027H80.2925V90.5805H86.3653Z" fill="white"></path><path d="M88.7443 48.4762C88.7443 48.0921 88.7195 47.7048 88.7443 47.3174C88.7889 46.7694 89.1443 46.4632 89.6633 46.4168C90.1823 46.3705 90.627 46.6138 90.6749 47.1072C90.7625 47.9955 90.7658 48.8901 90.6848 49.779C90.6352 50.3055 90.1625 50.5472 89.6303 50.4892C89.391 50.4802 89.1646 50.3785 88.9987 50.2056C88.8328 50.0327 88.7404 49.802 88.741 49.5622C88.7129 49.2013 88.741 48.8354 88.741 48.4712L88.7443 48.4762Z" fill="white"></path><path d="M95.5734 48.4397C95.5734 48.8038 95.5916 49.168 95.5734 49.5306C95.5387 50.1001 95.2213 50.446 94.6527 50.4957C94.0841 50.5454 93.6445 50.249 93.5932 49.6978C93.5184 48.8718 93.5184 48.0407 93.5932 47.2146C93.6412 46.6882 94.0775 46.3968 94.6048 46.4266C94.729 46.4238 94.8525 46.4457 94.9682 46.4911C95.0838 46.5364 95.1893 46.6044 95.2785 46.6909C95.3677 46.7775 95.4388 46.881 95.4878 46.9953C95.5367 47.1097 95.5624 47.2326 95.5635 47.357C95.5916 47.7179 95.5635 48.0837 95.5635 48.4463L95.5734 48.4397Z" fill="white"></path><path d="M100.413 48.4878C100.413 48.8304 100.436 49.1748 100.413 49.5141C100.36 50.1266 99.9333 50.5157 99.3647 50.5074C98.7961 50.4991 98.3961 50.0919 98.3729 49.4678C98.3531 48.7841 98.3514 48.0971 98.3729 47.4134C98.3736 47.1532 98.4749 46.9034 98.6554 46.7164C98.836 46.5293 99.0819 46.4196 99.3415 46.4102C99.6012 46.4042 99.8536 46.4962 100.049 46.6679C100.244 46.8396 100.367 47.0786 100.394 47.3372C100.418 47.7231 100.421 48.1099 100.403 48.496L100.413 48.4878Z" fill="white"></path><path d="M98.3699 65.2854C98.3699 64.9427 98.355 64.6 98.3699 64.259C98.4013 63.6746 98.7848 63.2657 99.317 63.2326C99.5773 63.2136 99.8347 63.2971 100.034 63.4653C100.234 63.6335 100.36 63.8731 100.386 64.1332C100.437 64.9016 100.437 65.6725 100.386 66.4409C100.376 66.57 100.339 66.6957 100.28 66.8106C100.22 66.9256 100.138 67.0274 100.038 67.1102C99.9384 67.1929 99.8234 67.255 99.6996 67.2927C99.5758 67.3304 99.4457 67.343 99.317 67.3298C98.7815 67.2984 98.4013 66.9011 98.3699 66.3134C98.355 65.9707 98.3699 65.6314 98.3699 65.2854Z" fill="white"></path><path d="M100.416 73.1108C100.416 73.4534 100.435 73.7961 100.416 74.1371C100.371 74.7894 99.9395 75.195 99.3461 75.1718C98.7809 75.1503 98.3941 74.7447 98.3775 74.1123C98.3594 73.4501 98.3577 72.7879 98.3775 72.1258C98.3974 71.5133 98.8139 71.0911 99.3693 71.0779C99.6399 71.0781 99.8998 71.1836 100.094 71.3719C100.289 71.5603 100.403 71.8169 100.412 72.0877C100.44 72.4188 100.412 72.7714 100.412 73.1141L100.416 73.1108Z" fill="white"></path><path d="M88.7412 57.3889C88.7412 57.0247 88.7214 56.6605 88.7412 56.2996C88.7793 55.76 89.0834 55.4256 89.6189 55.366C90.1826 55.3031 90.6503 55.5563 90.7049 56.1175C90.7834 56.9661 90.7834 57.82 90.7049 58.6686C90.657 59.1983 90.209 59.4681 89.6784 59.4284C89.5542 59.4286 89.4312 59.4041 89.3166 59.3563C89.2019 59.3085 89.0979 59.2384 89.0105 59.15C88.9232 59.0616 88.8542 58.9567 88.8077 58.8413C88.7612 58.726 88.7381 58.6026 88.7396 58.4782C88.7231 58.1156 88.7412 57.7514 88.7412 57.3889Z" fill="white"></path><path d="M95.5753 57.3658C95.5753 57.7284 95.5885 58.0926 95.5753 58.4551C95.5791 58.5794 95.5582 58.7033 95.514 58.8195C95.4698 58.9358 95.403 59.0421 95.3176 59.1324C95.2322 59.2227 95.1298 59.2952 95.0163 59.3458C94.9028 59.3963 94.7805 59.4238 94.6563 59.4268C94.1009 59.4782 93.6447 59.1868 93.5951 58.6289C93.5178 57.803 93.5178 56.9717 93.5951 56.1458C93.6497 55.5895 94.091 55.3181 94.6662 55.3677C94.9055 55.3725 95.1335 55.4707 95.3015 55.6414C95.4694 55.8121 95.5642 56.0418 95.5654 56.2815C95.5968 56.6407 95.5654 57.0066 95.5654 57.3708L95.5753 57.3658Z" fill="white"></path><path d="M100.416 57.4304C100.416 57.7499 100.434 58.0727 100.416 58.3922C100.373 59.0262 99.9197 59.4682 99.3495 59.4434C98.7792 59.4185 98.3924 58.9931 98.3775 58.3773C98.3594 57.7151 98.3577 57.0529 98.3775 56.3907C98.3957 55.7633 98.7908 55.3677 99.3693 55.3561C99.9478 55.3445 100.361 55.7219 100.416 56.3411C100.444 56.702 100.416 57.0678 100.416 57.432V57.4304Z" fill="white"></path><path d="M100.413 80.9342C100.413 81.2984 100.438 81.6643 100.413 82.0251C100.362 82.641 99.9385 83.0184 99.3666 83.0184C98.7947 83.0184 98.3964 82.6095 98.3749 81.9821C98.355 81.2968 98.3534 80.6114 98.3749 79.9277C98.3756 79.6675 98.4768 79.4177 98.6574 79.2307C98.838 79.0437 99.0839 78.9339 99.3435 78.9245C99.603 78.9181 99.8554 79.0097 100.05 79.1812C100.246 79.3526 100.369 79.5914 100.396 79.8499C100.419 80.2126 100.422 80.5762 100.405 80.9392L100.413 80.9342Z" fill="white"></path><path d="M61.8428 74.7148V83.5764C61.8533 83.7902 61.8456 84.0045 61.8196 84.217C61.7945 84.4323 61.6959 84.6323 61.5404 84.7831C61.385 84.934 61.1823 85.0264 60.9667 85.0447C60.7428 85.0912 60.5096 85.053 60.3121 84.9374C60.1146 84.8219 59.9669 84.6372 59.8973 84.419C59.8199 84.1757 59.7852 83.9209 59.7948 83.6658C59.7948 77.672 59.7948 71.6782 59.7948 65.6844C59.7846 65.4292 59.817 65.1741 59.8907 64.9295C59.9528 64.7086 60.0944 64.5186 60.2883 64.3963C60.4822 64.274 60.7145 64.2281 60.9403 64.2674C61.1683 64.2818 61.3834 64.3782 61.5462 64.5388C61.7089 64.6993 61.8084 64.9133 61.8262 65.1414C61.845 65.3544 61.8505 65.5684 61.8428 65.7821V74.7148Z" fill="white"></path><path d="M67.6171 74.6402C67.6171 77.62 67.6171 80.5954 67.6171 83.5663C67.6257 83.7801 67.6185 83.9943 67.5956 84.207C67.5733 84.4231 67.477 84.6248 67.323 84.7778C67.169 84.9308 66.9669 85.0257 66.751 85.0463C66.5277 85.0957 66.2941 85.06 66.0957 84.9461C65.8974 84.8322 65.7485 84.6484 65.6782 84.4305C65.5927 84.1451 65.5558 83.8474 65.5692 83.5498C65.5692 77.62 65.5692 71.6908 65.5692 65.7621C65.5565 65.4831 65.5877 65.2037 65.6617 64.9344C65.7231 64.7144 65.8636 64.525 66.0562 64.4027C66.2488 64.2804 66.4799 64.2339 66.7047 64.2722C66.9325 64.2834 67.1485 64.377 67.3127 64.5356C67.4768 64.6942 67.5779 64.9071 67.5973 65.1347C67.6188 65.3481 67.6254 65.5627 67.6171 65.777C67.6193 68.7314 67.6193 71.6858 67.6171 74.6402Z" fill="white"></path><path d="M78.4424 70.654C78.4628 71.0164 78.4601 71.3797 78.4342 71.7417C78.4118 72.0005 78.289 72.2403 78.0922 72.4096C77.8954 72.5789 77.6401 72.6642 77.3813 72.6472C77.2533 72.645 77.1269 72.6176 77.0095 72.5665C76.8921 72.5154 76.7859 72.4416 76.6971 72.3493C76.6082 72.2571 76.5383 72.1482 76.4915 72.0288C76.4447 71.9095 76.4218 71.7821 76.4242 71.6539C76.4011 70.9504 76.3994 70.2435 76.4242 69.5399C76.4457 68.9688 76.7813 68.6394 77.3482 68.5814C77.4762 68.5639 77.6065 68.5726 77.7311 68.607C77.8557 68.6415 77.9719 68.7009 78.0729 68.7817C78.1738 68.8625 78.2573 68.9631 78.3183 69.0772C78.3793 69.1913 78.4164 69.3166 78.4276 69.4456C78.4573 69.85 78.4606 70.2558 78.4375 70.6607L78.4424 70.654Z" fill="white"></path><path d="M78.4436 76.6565C78.4615 77.0189 78.4588 77.3821 78.4353 77.7442C78.4276 77.8782 78.3928 78.0092 78.333 78.1294C78.2732 78.2495 78.1898 78.3563 78.0877 78.4433C77.9855 78.5302 77.8669 78.5956 77.7389 78.6353C77.6108 78.675 77.4761 78.6884 77.3428 78.6745C76.799 78.6364 76.4353 78.2557 76.4171 77.6481C76.3956 76.9661 76.394 76.2824 76.4171 75.5987C76.4143 75.4703 76.4369 75.3425 76.4837 75.2229C76.5304 75.1033 76.6004 74.9941 76.6895 74.9017C76.7787 74.8094 76.8853 74.7356 77.0031 74.6848C77.1209 74.6339 77.2476 74.6069 77.3758 74.6054C77.9229 74.5823 78.3329 74.9365 78.437 75.5077C78.4452 75.5491 78.4502 75.5912 78.4519 75.6335V76.6582L78.4436 76.6565Z" fill="white"></path><path d="M82.3079 70.5976C82.3079 70.2351 82.2831 69.8692 82.3079 69.51C82.3575 68.9405 82.6897 68.6061 83.26 68.5797C83.8302 68.5532 84.2517 68.8445 84.2897 69.4074C84.3506 70.2153 84.3479 71.0268 84.2815 71.8342C84.2319 72.4021 83.7939 72.6736 83.2319 72.6371C82.9927 72.6394 82.7623 72.5471 82.5906 72.3804C82.4189 72.2137 82.3197 71.986 82.3145 71.7465C82.2798 71.3658 82.3145 70.9784 82.3145 70.5877L82.3079 70.5976Z" fill="white"></path><path d="M90.2009 70.654C90.2009 71.0165 90.229 71.3824 90.2009 71.7416C90.1447 72.3177 89.7827 72.6289 89.2207 72.6405C88.6918 72.6521 88.272 72.3756 88.229 71.836C88.1684 71.0093 88.1712 70.1791 88.2372 69.3528C88.2835 68.8181 88.7149 68.5582 89.2488 68.5814C89.7827 68.6046 90.1331 68.9125 90.191 69.4455C90.2152 69.8501 90.218 70.2557 90.1992 70.6606L90.2009 70.654Z" fill="white"></path><path d="M84.3214 76.6433C84.3421 77.0261 84.3388 77.4098 84.3115 77.7922C84.3032 77.9212 84.2687 78.0471 84.2101 78.1623C84.1515 78.2775 84.07 78.3794 83.9706 78.4619C83.8713 78.5443 83.7561 78.6056 83.6322 78.6419C83.5084 78.6782 83.3784 78.6887 83.2503 78.6729C82.6817 78.6232 82.3412 78.2938 82.3164 77.726C82.2834 77.0026 82.2817 76.2742 82.3164 75.5508C82.3429 74.9829 82.6867 74.6552 83.2553 74.6088C83.3833 74.5937 83.5131 74.6049 83.6367 74.6417C83.7603 74.6785 83.8751 74.7402 83.9741 74.8229C84.0731 74.9056 84.1542 75.0077 84.2125 75.1229C84.2708 75.2381 84.305 75.3639 84.3131 75.4928C84.3399 75.8758 84.3427 76.26 84.3214 76.6433Z" fill="white"></path><path d="M90.1953 76.6748C90.2146 77.0609 90.2113 77.4479 90.1854 77.8336C90.1225 78.3749 89.7639 78.6613 89.23 78.6812C88.6961 78.7011 88.2729 78.4279 88.2382 77.8916C88.1732 77.0651 88.1732 76.2348 88.2382 75.4084C88.2796 74.8704 88.706 74.6055 89.23 74.6221C89.7539 74.6386 90.1225 74.93 90.1837 75.473C90.2102 75.873 90.2141 76.2743 90.1953 76.6748Z" fill="white"></path><path d="M76.0398 52.9789C74.7175 52.9789 73.3952 52.9789 72.0728 52.9789C71.2464 52.9789 70.8001 52.6015 70.8067 51.9542C70.8067 51.3351 71.2596 50.9345 72.0266 50.9312C74.7605 50.9212 77.4944 50.9163 80.2283 50.9312C81.1093 50.9312 81.6019 51.5933 81.3324 52.3134C81.139 52.8349 80.7242 52.9756 80.2101 52.9756C78.8151 52.9756 77.4266 52.9789 76.0398 52.9789Z" fill="white"></path><path d="M78.3616 57.7052C77.7434 57.7052 77.1269 57.7168 76.5087 57.7052C75.8475 57.687 75.4244 57.2946 75.4161 56.7119C75.4079 56.1292 75.8194 55.6806 76.4723 55.669C77.7506 55.6458 79.0288 55.6458 80.3071 55.669C80.9683 55.6806 81.3732 56.1176 81.3666 56.7086C81.36 57.2996 80.9402 57.7019 80.279 57.7118C79.6178 57.7217 79.0013 57.7052 78.3616 57.7052Z" fill="white"></path><path d="M35.3496 49.8026L37.8394 52.9845C38.6521 54.023 40.2299 54.0045 41.0181 52.9472L46.4709 45.6316" stroke="white" stroke-width="2" stroke-linecap="round" stroke-linejoin="round"></path><path d="M42.194 44.9371H33.998C32.8935 44.9371 31.998 45.8326 31.998 46.9371V55.9139C31.998 57.0184 32.8935 57.9139 33.998 57.9139H42.9748C44.0793 57.9139 44.9748 57.0184 44.9748 55.9139V53.9745" stroke="white" stroke-width="2" stroke-linecap="round"></path><path d="M35.3496 72.9754L37.8394 76.1572C38.6521 77.1958 40.2299 77.1773 41.0181 76.1199L46.4709 68.8043" stroke="white" stroke-width="2" stroke-linecap="round" stroke-linejoin="round"></path><path d="M42.194 68.1099H33.998C32.8935 68.1099 31.998 69.0053 31.998 70.1099V79.0866C31.998 80.1912 32.8935 81.0866 33.998 81.0866H42.9748C44.0793 81.0866 44.9748 80.1912 44.9748 79.0866V77.1472" stroke="white" stroke-width="2" stroke-linecap="round"></path></svg> 