<?xml version="1.0" encoding="UTF-8"?> <svg xmlns="http://www.w3.org/2000/svg" width="140" height="140" viewBox="0 0 140 140" fill="none"><circle cx="70" cy="70" r="70" fill="#BB8D7D"></circle><path d="M108 73.7288C107.787 73.995 107.595 74.2772 107.358 74.5168C102.42 79.5377 97.4777 84.556 92.5323 89.5716C91.7561 90.3596 91.3299 90.3703 90.5656 89.5929C84.7774 83.736 79.0128 77.8552 73.1825 72.0422C71.8262 70.6898 71.5486 69.0779 71.4447 67.3221C71.3868 66.3438 71.2684 65.3694 71.1816 64.4842C70.0516 64.7504 68.9453 64.9914 67.8521 65.2829C67.685 65.3281 67.5442 65.5957 67.4574 65.7887C65.8999 69.171 63.4912 71.6176 59.9169 72.7371C59.321 72.9234 59.0408 73.183 58.8645 73.7953C57.0228 80.4163 55.1364 87.0265 53.2802 93.6448C53.2142 93.9235 53.0906 94.1848 52.9176 94.4117C52.7446 94.6386 52.5261 94.8259 52.2765 94.9613C50.6387 95.8931 49.0219 96.8674 47.3946 97.8218C46.8513 98.14 46.358 98.0375 46.0489 97.4704C45.0658 95.6566 44.098 93.8316 43.1456 91.9956C42.8443 91.4139 43.0206 90.9107 43.5823 90.574C44.144 90.2372 44.686 89.955 45.2806 89.6235C44.9886 88.9966 44.7058 88.4056 44.4361 87.8092C44.1006 87.0651 44.2269 86.6112 44.8939 86.1666C45.4398 85.8033 45.9936 85.4518 46.5961 85.0605C46.3001 84.4309 46.0081 83.8212 45.7266 83.2076C45.3477 82.3836 45.4635 81.9737 46.1936 81.4638C46.6461 81.1484 47.096 80.8276 47.5604 80.5321C47.8235 80.367 47.9314 80.194 47.7393 79.9131C47.7288 79.8958 47.7275 79.8705 47.7156 79.8532C46.7303 78.3996 46.8395 76.9061 47.3723 75.2968C47.9274 73.6183 48.2708 71.8692 48.7378 70.1601C48.8364 69.7993 48.7601 69.5877 48.5155 69.3241C45.3359 65.9045 44.44 61.8832 45.7674 57.4519C47.0763 53.0753 50.098 50.3891 54.4918 49.3961C55.685 49.1298 56.9663 49.2377 58.2081 49.2204C58.5501 49.2204 58.779 49.1818 59.0171 48.8916C64.1858 42.5954 73.4719 44.1888 76.3608 51.8693C76.5002 52.2407 76.6975 52.3525 77.0462 52.3831C80.3731 52.6813 83.6987 53.0007 87.0269 53.2816C87.8318 53.3407 88.6006 53.6425 89.2343 54.1481C89.5675 54.4112 89.8842 54.6948 90.1828 54.9974C95.8991 60.7762 101.613 66.5572 107.324 72.3404C107.559 72.58 107.775 72.8396 108 73.0898V73.7288ZM105.618 73.3787C105.368 73.2189 105.116 73.1125 104.94 72.9367C99.6851 67.6309 94.4389 62.3167 89.2014 56.994C88.2214 55.9917 87.2216 55.3568 85.7614 55.2636C82.3029 55.0453 78.8576 54.6313 75.4031 54.3318C73.7534 54.1907 72.4629 55.5471 72.6142 57.211C72.9444 60.8529 73.3259 64.4909 73.6179 68.1354C73.7034 69.2003 74.1376 69.9684 74.8585 70.6938C80.2897 76.1603 85.7057 81.6382 91.1063 87.1277C91.2308 87.2696 91.3439 87.4214 91.4444 87.5816L105.618 73.3787ZM66.0354 63.0799C67.2193 59.2197 64.9961 53.3628 59.6578 51.8147C59.5644 52.0436 59.4565 52.2726 59.3763 52.5109C59.0553 53.4706 59.0592 53.4719 59.8906 54.023C60.6243 54.4887 61.1671 55.2068 61.4192 56.0451C61.6713 56.8835 61.6157 57.7858 61.2627 58.5861C60.9332 59.3822 60.3387 60.0366 59.5823 60.4356C58.8258 60.8346 57.9552 60.953 57.1215 60.7704C55.514 60.3977 54.305 59.0786 54.1787 57.5571C54.0353 55.8466 54.9338 54.3784 56.5282 53.6836C56.7032 53.6077 56.9321 53.4812 56.9821 53.3255C57.186 52.7025 57.3293 52.0596 57.4977 51.4087C56.8202 51.4087 56.1546 51.3195 55.5245 51.4233C51.624 52.061 48.9127 54.2693 47.7485 58.0789C46.5646 61.9631 47.4683 65.4359 50.4664 68.2406C51.0031 68.7424 51.157 69.2456 50.9649 69.9471C50.5203 71.5737 50.2282 73.2509 49.6705 74.8349C49.0272 76.6612 49.0535 78.3158 50.0796 79.989C50.5427 80.7424 50.3309 81.2242 49.5968 81.7194C49.0417 82.0948 48.4826 82.4635 47.913 82.8429C48.2195 83.4831 48.497 84.0582 48.768 84.6345C49.1627 85.4678 49.0311 85.9018 48.2576 86.4102C47.7314 86.755 47.2052 87.0944 46.7145 87.4086C46.708 87.5137 46.6987 87.5417 46.7066 87.555C46.9697 88.1141 47.2328 88.6718 47.4959 89.2309C47.9195 90.124 47.8025 90.5393 46.9842 91.0412C46.483 91.3473 45.9778 91.6468 45.4411 91.973L47.3249 95.4645C48.5089 94.7616 49.6507 94.116 50.7531 93.4079C51.0555 93.2031 51.2815 92.9018 51.3951 92.552C53.3499 85.7385 55.2855 78.9192 57.2017 72.0942C57.3899 71.4286 57.7385 71.1011 58.416 70.996C59.6722 70.7842 60.861 70.2742 61.8849 69.5078C63.3983 68.4186 64.6026 66.9466 65.3776 65.2389C65.1421 65.1817 64.983 65.1418 64.8225 65.1058C63.3717 64.7888 62.0077 64.1526 60.8273 63.2423C60.5996 63.0818 60.4418 62.8387 60.3867 62.5635C60.3316 62.2884 60.3834 62.0023 60.5313 61.7647C60.8352 61.2909 61.435 61.1777 61.9876 61.4985C62.152 61.593 62.302 61.7142 62.4598 61.8207C63.5212 62.5519 64.7547 62.9863 66.0354 63.0799ZM68.3651 63.0865C69.115 62.8017 69.778 62.5448 70.4449 62.3012C70.8396 62.1548 70.9711 61.9018 70.9212 61.4679C70.7896 60.387 70.7133 59.2969 70.5844 58.2133C70.3844 56.5322 70.5278 54.9175 71.8131 53.6969C72.4853 53.058 73.3469 52.624 74.1678 52.0676C73.5259 49.7382 70.6778 47.4806 67.9152 47.1345C64.7725 46.7432 61.8718 48.4177 61.0338 49.83C66.5234 52.4416 68.9821 56.7864 68.3704 63.0865H68.3651ZM57.9503 55.6017C56.9663 55.5884 56.3151 56.2007 56.3151 57.1418C56.3111 57.3504 56.3483 57.5578 56.4245 57.7517C56.5008 57.9456 56.6145 58.1221 56.7591 58.2709C56.9037 58.4197 57.0763 58.5378 57.2666 58.6182C57.4569 58.6986 57.6612 58.7397 57.8674 58.7391C58.2826 58.7412 58.6827 58.5821 58.9855 58.2946C59.2882 58.0071 59.4704 57.6131 59.4947 57.1937C59.4998 56.9857 59.4635 56.7788 59.3881 56.5852C59.3127 56.3916 59.1996 56.2154 59.0555 56.0669C58.9115 55.9184 58.7394 55.8007 58.5496 55.7208C58.3597 55.6409 58.1559 55.6004 57.9503 55.6017Z" fill="white"></path><circle cx="70" cy="70" r="55" stroke="white" stroke-width="2"></circle></svg> 