<?xml version="1.0" encoding="UTF-8"?> <svg xmlns="http://www.w3.org/2000/svg" width="140" height="140" viewBox="0 0 140 140" fill="none"><circle cx="70" cy="70" r="70" fill="#BB8D7D"></circle><path d="M101 40H59.3223C57.6654 40 56.3223 41.3431 56.3223 43V72.3065C56.3223 73.9633 57.6654 75.3064 59.3223 75.3064H90.9137C91.13 75.3064 91.3406 75.3766 91.5137 75.5065L99.1997 81.271C101.177 82.7542 104 81.3431 104 78.871V43C104 41.3431 102.657 40 101 40Z" stroke="white" stroke-width="2"></path><path d="M51.6124 58.129H39.3382C38.2336 58.129 37.3382 59.0245 37.3382 60.129V96C37.3382 97.6481 39.2197 98.5888 40.5382 97.6L48.2242 91.8355C48.5704 91.5758 48.9915 91.4355 49.4242 91.4355H81.0156C82.1202 91.4355 83.0156 90.54 83.0156 89.4355V80.4919" stroke="white" stroke-width="2" stroke-linecap="round"></path><circle cx="67.7893" cy="58.129" r="3.75806" stroke="white" stroke-width="2"></circle><circle cx="80.1604" cy="58.129" r="3.75806" stroke="white" stroke-width="2"></circle><circle cx="92.5315" cy="58.129" r="3.75806" stroke="white" stroke-width="2"></circle><circle cx="70" cy="70" r="55" stroke="white" stroke-width="2"></circle></svg> 