<?xml version="1.0" encoding="UTF-8"?> <svg xmlns="http://www.w3.org/2000/svg" width="140" height="140" viewBox="0 0 140 140" fill="none"><circle cx="70" cy="70" r="70" fill="#BB8D7D"></circle><path d="M86.1375 100.353C87.5054 101.166 87.8134 102.28 87.7624 103.603C87.7095 104.996 87.7624 106.391 87.7473 107.785C87.7473 108.644 87.3996 109 86.5531 109C81.463 109 76.3722 109 71.2808 109C70.4721 109 70.0999 108.642 70.0923 107.836C70.0753 106.207 70.0715 104.575 70.0923 102.943C70.1074 101.935 70.5269 101.092 71.4036 100.575C71.7909 100.345 71.8155 100.088 71.7966 99.7086C71.67 97.1826 71.585 94.6603 72.0214 92.1455C72.5883 88.888 74.2434 86.4604 77.2703 85.0695C79.3846 84.0935 81.5367 83.1953 83.6339 82.1795C85.7709 81.1448 87.6339 79.697 89.342 78.0483C91.1917 76.2613 92.7581 76.1988 94.8327 77.8892C95.4902 76.2196 96.1836 74.5956 96.7712 72.9355C97.5894 70.6236 98.3262 68.2832 99.1009 65.9561C99.1972 65.6407 99.312 65.3312 99.4448 65.0294C100.133 63.5683 101.506 62.7838 102.846 63.0718C104.131 63.3447 105.177 64.6447 105.089 66.2157C105.003 67.8891 104.771 69.5517 104.395 71.1845C103.615 74.4894 102.721 77.7679 101.812 81.0387C100.679 85.1415 98.1978 88.3441 95.0103 91.0919C92.7429 93.0495 90.5342 95.0715 88.4105 97.1826C87.53 98.0751 86.9159 99.2538 86.1375 100.353ZM73.7994 100.097C77.259 100.097 80.626 100.097 83.9911 100.082C84.1365 100.082 84.3425 99.8716 84.4124 99.703C85.2425 97.8148 86.4547 96.1202 87.9721 94.7266C90.1771 92.6629 92.4595 90.6864 94.7061 88.6625C96.8109 86.7674 98.4736 84.5692 99.4297 81.8782C101.014 77.379 102.207 72.7504 102.993 68.0444C103.1 67.2782 103.111 66.5016 103.027 65.7325C103.004 65.4785 102.67 65.0882 102.436 65.054C102.268 65.0452 102.101 65.0747 101.947 65.1404C101.793 65.2061 101.656 65.3062 101.546 65.4331C101.258 65.8876 101.04 66.3826 100.898 66.9017C99.2917 72.0657 97.5724 77.1918 94.9838 81.9578C93.0094 85.5887 89.8181 87.8912 86.1507 89.5872C85.5139 89.881 84.9566 89.6119 84.7601 89.0471C84.5636 88.4824 84.8073 88.0162 85.4289 87.7566C87.9816 86.6897 90.0788 84.9842 91.9097 82.9546C92.5432 82.2303 93.059 81.4104 93.4383 80.5252C93.5304 80.3301 93.5726 80.115 93.561 79.8994C93.5494 79.6839 93.4844 79.4746 93.3718 79.2906C93.2592 79.1066 93.1027 78.9536 92.9164 78.8456C92.73 78.7375 92.5198 78.6778 92.3046 78.6718C91.8009 78.6953 91.3217 78.8967 90.9518 79.2403C88.7965 81.3638 86.3012 83.1094 83.5697 84.4043C81.8201 85.2173 80.0327 85.9488 78.2793 86.7447C76.2406 87.6676 74.8122 89.1381 74.2302 91.3629C73.4877 94.2415 73.6615 97.1087 73.7994 100.097ZM85.7709 106.982C85.7709 105.706 85.7709 104.503 85.7709 103.298C85.7709 102.333 85.531 102.091 84.5579 102.089C82.2906 102.089 80.0283 102.089 77.771 102.089C76.2387 102.089 74.7063 102.089 73.1759 102.089C72.6204 102.089 72.1235 102.252 72.0989 102.862C72.0479 104.223 72.0838 105.589 72.0838 106.986L85.7709 106.982Z" fill="white"></path><path d="M52.7077 100.432C52.0177 98.8433 51.001 97.4182 49.7242 96.2501C47.8858 94.5218 45.9454 92.8959 44.0975 91.1847C42.9374 90.114 41.7924 89.0149 40.7381 87.8418C39.1226 86.0415 38.0928 83.8926 37.3503 81.6033C35.8387 76.9738 34.5577 72.2873 33.9361 67.4474C33.827 66.6086 33.8992 65.7562 34.1477 64.9478C34.809 62.8917 37.1708 62.3308 38.671 63.8847C39.2378 64.4665 39.6044 65.2908 39.8916 66.0697C41.2595 69.7859 42.5689 73.5229 43.9029 77.2504C43.9728 77.4399 44.0918 77.6294 44.1976 77.8663C45.1801 76.9188 46.2873 76.4128 47.61 76.7824C48.1352 76.9302 48.7134 77.1727 49.0856 77.5536C52.0558 80.5857 55.6457 82.5888 59.5531 84.1029C60.188 84.3493 60.8039 84.6506 61.4293 84.9254C64.9248 86.4603 66.7198 89.2422 67.0504 92.9565C67.2394 95.1851 67.1676 97.4364 67.1751 99.6782C67.1751 100.093 67.2129 100.357 67.6059 100.595C68.4807 101.128 68.8718 101.979 68.8851 102.985C68.9065 104.592 68.9065 106.199 68.8851 107.806C68.8851 108.649 68.5072 108.998 67.6531 108.998C62.5857 108.998 57.5182 108.998 52.4507 108.998C51.5627 108.998 51.232 108.651 51.2282 107.742C51.2282 106.322 51.266 104.899 51.215 103.487C51.1772 102.201 51.5305 101.16 52.7077 100.432ZM65.1326 100.038C65.1683 99.924 65.1936 99.8066 65.2082 99.6877C65.2082 97.7927 65.2895 95.8976 65.2082 94.0216C65.0457 90.1841 63.2394 87.5045 59.5267 86.2424C58.9938 86.0529 58.4875 85.8028 57.966 85.5867C55.5229 84.5767 53.1366 83.4396 51.0469 81.8137C49.951 80.9609 48.9363 80.0039 47.8858 79.0924C47.2944 78.5808 46.6652 78.5144 46.0757 78.9029C45.5259 79.2668 45.32 79.8789 45.5448 80.5895C45.6292 80.8851 45.7566 81.1667 45.9227 81.4252C46.3022 82.022 46.728 82.5878 47.1962 83.1175C49.044 85.0637 51.0884 86.7522 53.5976 87.7982C54.2079 88.0522 54.4384 88.5562 54.2362 89.1001C54.0341 89.644 53.5145 89.8468 52.8909 89.6383C52.5996 89.5438 52.317 89.424 52.0464 89.2802C48.2807 87.2392 45.1083 84.624 43.2586 80.5971C41.2311 76.156 39.5077 71.5815 38.1004 66.9054C37.9687 66.4062 37.7616 65.93 37.4863 65.4936C37.3182 65.251 36.8798 65.0236 36.6134 65.071C36.347 65.1184 36.0239 65.4993 35.9691 65.7817C35.8624 66.3352 35.849 66.9027 35.9294 67.4607C36.587 71.9803 37.7868 76.3673 39.1415 80.7259C40.1035 83.8611 41.9304 86.6592 44.4111 88.7969C45.7961 90.0078 47.1754 91.2264 48.5679 92.4354C50.9977 94.554 53.3123 96.7637 54.6368 99.8014C54.6982 99.8884 54.7787 99.9601 54.872 100.011C54.9654 100.062 55.0691 100.091 55.1753 100.095C58.4043 100.112 61.6315 100.107 64.8605 100.095C64.9528 100.085 65.0439 100.066 65.1326 100.038ZM66.9182 106.978C66.9182 105.6 66.9408 104.259 66.9068 102.919C66.8936 102.35 66.4949 102.096 65.9489 102.091C65.1723 102.091 64.3939 102.091 63.6154 102.091H54.3572C53.8205 102.091 53.2783 102.187 53.2537 102.816C53.197 104.2 53.2367 105.587 53.2367 106.986L66.9182 106.978Z" fill="white"></path><path d="M53.0059 70.2512V69.8027C53.2245 69.2309 53.6522 69.0265 54.2452 69.0437C55.2005 69.0653 56.1566 69.0498 57.1128 69.0437C57.2264 69.0437 57.3391 69.0343 57.4751 69.0282V68.6738C57.4751 67.5008 57.4665 66.327 57.4811 65.1541C57.4811 64.9066 57.3993 64.8091 57.1807 64.7108C56.8566 64.5693 56.5495 64.3917 56.265 64.1813C55.4552 63.5776 54.876 62.7686 54.4629 61.8604C53.0601 58.7763 52.6384 55.5715 53.4999 52.2683C54.302 49.1902 55.8365 46.4571 57.6506 43.8741C58.0663 43.2816 58.8452 43.2885 59.2497 43.8982C59.9081 44.8918 60.5243 45.9138 61.1577 46.9237C61.2171 47.0177 61.2739 47.1134 61.3823 47.2903C61.3823 47.0634 61.3823 46.9375 61.3823 46.8116C61.4004 45.9949 61.3651 45.1729 61.4486 44.3614C61.8789 40.1708 66.0633 37.2186 70.165 38.1837C73.5214 38.9728 75.7745 41.8284 75.7961 45.3221C75.8055 46.8746 75.7961 48.4226 75.8047 49.9725C75.8088 50.1268 75.8702 50.2741 75.9768 50.3856C77.519 51.7733 79.075 53.1454 80.6242 54.5253C80.6827 54.5771 80.7515 54.6176 80.8514 54.6892V51.7086C80.8514 50.922 81.1956 50.483 81.8101 50.4787C82.4246 50.4744 82.7817 50.9099 82.7817 51.6861C82.7817 52.8703 82.8428 54.0587 82.762 55.2377C82.7017 56.1165 82.9496 56.7271 83.663 57.2507C84.3619 57.7629 84.9798 58.3882 85.6209 58.9755C85.7806 59.1154 85.8877 59.3057 85.9246 59.515C85.9616 59.7242 85.9261 59.9398 85.8241 60.126C85.7291 60.3169 85.5728 60.4702 85.3803 60.5611C85.1877 60.6521 84.9702 60.6753 84.7629 60.6271C84.6274 60.5891 84.4946 60.5421 84.3653 60.4866V69.0334C84.6493 69.0463 84.9083 69.0386 85.1614 69.0731C85.3985 69.1031 85.6159 69.2211 85.7704 69.4038C85.925 69.5865 86.0056 69.8207 85.9963 70.0601C85.987 70.2994 85.8885 70.5266 85.7202 70.6968C85.552 70.8669 85.3261 70.9676 85.0874 70.9791C84.9695 70.9877 84.8507 70.9868 84.7328 70.9868C74.574 70.9868 64.4146 70.9894 54.2546 70.9946C53.6625 70.9946 53.2374 70.8169 53.0059 70.2512ZM73.1204 50.4485C73.0395 50.5115 72.9878 50.5477 72.9405 50.59C69.961 53.2406 66.9838 55.8934 64.0089 58.5486C63.8893 58.6753 63.822 58.8426 63.8205 59.0169C63.8093 62.2347 63.8119 65.4534 63.8119 68.6763V69.0334H65.7431V68.6332C65.7431 66.1356 65.7431 63.6382 65.7431 61.1411C65.7431 60.2787 66.0874 59.9337 66.9592 59.9337H70.3044C71.1719 59.9337 71.5179 60.2787 71.5179 61.1411C71.5179 63.6376 71.5179 66.1347 71.5179 68.6324V69.0222H82.3945C82.4005 68.942 82.4082 68.8894 82.4082 68.8359C82.4082 65.5316 82.4057 62.2273 82.4005 58.9229C82.3838 58.7696 82.3104 58.6281 82.1948 58.5262C80.1459 56.6909 78.0916 54.8605 76.0319 53.035C75.0688 52.1777 74.1049 51.3222 73.1204 50.4485ZM64.5288 55.4654C64.5813 55.4248 64.6424 55.3835 64.7009 55.3352C65.4565 54.6642 66.1829 53.9552 66.9764 53.3351C67.4618 52.9531 67.6511 52.5365 67.5848 51.9397C67.5599 51.7137 67.5177 51.543 67.349 51.3783C66.7655 50.8073 66.1949 50.2226 65.6278 49.6378C65.2069 49.2066 65.1837 48.615 65.5624 48.2226C65.9548 47.8181 66.5495 47.8388 66.9962 48.2743C67.1752 48.4468 67.3516 48.6245 67.578 48.8478C67.578 47.8552 67.5676 46.9427 67.5857 46.0302C67.5915 45.8065 67.6505 45.5874 67.7578 45.3911C67.9661 45.022 68.4188 44.8737 68.8216 44.9987C69.0245 45.0575 69.2022 45.1821 69.3268 45.353C69.4514 45.524 69.5159 45.7315 69.5101 45.9431C69.5152 47.5145 69.5101 49.085 69.5101 50.6564V51.0522C69.6589 50.9246 69.7484 50.8504 69.8354 50.7737C70.6865 50.0164 71.5342 49.2558 72.3888 48.5029C72.8536 48.0941 73.2064 48.0716 73.7288 48.4011C73.7624 48.4218 73.8003 48.4339 73.8622 48.4623C73.8683 48.3856 73.876 48.3355 73.876 48.2855C73.876 47.2506 73.8889 46.2156 73.8683 45.1867C73.8607 44.7892 73.8105 44.3937 73.7185 44.0069C73.0765 41.3851 70.597 39.6498 67.9807 39.9793C66.6935 40.1313 65.5069 40.7523 64.6469 41.7241C63.7869 42.696 63.3136 43.9508 63.317 45.2497C63.311 46.5623 63.317 47.8759 63.317 49.1885C63.317 50.6038 63.274 52.013 63.6199 53.4145C63.8024 54.1674 63.947 54.8927 64.5288 55.4654ZM58.4579 46.151C58.3908 46.2458 58.3366 46.3114 58.2953 46.3847C57.8081 47.2471 57.2909 48.0872 56.8425 48.966C55.5025 51.5956 54.6367 54.3252 55.1213 57.3412C55.3536 58.7729 55.6798 60.1649 56.4122 61.4309C56.7229 61.9648 57.093 62.4512 57.6248 62.7867C58.0965 63.0851 58.5965 63.1429 59.0879 62.8729C60.0036 62.371 60.4606 61.5042 60.878 60.6099C60.1249 60.0769 60.0845 59.4352 60.7325 58.8505C60.9795 58.628 61.2352 58.4141 61.4753 58.1838C61.5599 58.1071 61.6199 58.0068 61.6474 57.8958C61.8522 56.64 61.9839 55.3757 61.7894 54.1079C61.3539 51.1911 59.9812 48.6546 58.4579 46.1544V46.151ZM67.6864 69.03H69.5729V61.8854H67.6864V69.03ZM61.8617 62.8859C61.7756 62.9807 61.7283 63.0308 61.6853 63.0877C61.1284 63.8311 60.4649 64.4374 59.5845 64.7833C59.4984 64.8178 59.4123 64.9868 59.4123 65.0946C59.4003 66.3201 59.4037 67.5457 59.4055 68.7721C59.4055 68.8583 59.4201 68.9377 59.4287 69.0308H61.8617V62.8859Z" fill="white"></path><path d="M81.6936 46.5131C80.8544 46.5138 80.0338 46.2651 79.3357 45.7984C78.6376 45.3317 78.0932 44.6681 77.7715 43.8914C77.4497 43.1147 77.3651 42.2598 77.5282 41.4348C77.6913 40.6099 78.0949 39.852 78.6878 39.2569C79.2808 38.6618 80.0366 38.2563 80.8596 38.0917C81.6825 37.927 82.5357 38.0107 83.3112 38.332C84.0868 38.6533 84.7498 39.1979 85.2165 39.8968C85.6832 40.5958 85.9325 41.4177 85.933 42.2587C85.9296 43.3849 85.4821 44.4642 84.6879 45.2611C83.8938 46.0581 82.8175 46.5081 81.6936 46.5131ZM81.6876 39.9421C81.2297 39.9421 80.7821 40.0783 80.4015 40.3334C80.0209 40.5885 79.7244 40.951 79.5496 41.375C79.3747 41.7991 79.3293 42.2656 79.4192 42.7155C79.5091 43.1654 79.7302 43.5785 80.0545 43.9024C80.3788 44.2263 80.7918 44.4465 81.241 44.5351C81.6903 44.6236 82.1557 44.5766 82.5782 44.4C83.0008 44.2233 83.3616 43.925 83.6148 43.5427C83.8681 43.1604 84.0025 42.7115 84.0009 42.2526C83.998 41.6394 83.753 41.0523 83.3196 40.6194C82.8862 40.1865 82.2995 39.943 81.6876 39.9421Z" fill="white"></path><path d="M76.8669 66.5426C76.1371 66.5426 75.4038 66.5426 74.6774 66.5426C73.9821 66.5426 73.5956 66.1622 73.5922 65.468C73.5865 63.984 73.5865 62.4997 73.5922 61.0151C73.5922 60.3252 73.9838 59.9345 74.6723 59.9319C76.1526 59.9273 77.6334 59.9273 79.1148 59.9319C79.7947 59.9319 80.1854 60.3355 80.1872 61.0255C80.1906 62.4991 80.1906 63.9728 80.1872 65.4464C80.1872 66.1562 79.8007 66.5383 79.0881 66.5417C78.3471 66.5477 77.607 66.5426 76.8669 66.5426ZM75.5544 61.8854C75.5384 61.9282 75.5275 61.9728 75.5217 62.0182C75.5217 62.8134 75.5217 63.6085 75.5148 64.4028C75.5148 64.6116 75.6284 64.6193 75.7825 64.6185C76.446 64.6185 77.1104 64.6185 77.7748 64.6185H78.237V61.8854H75.5544Z" fill="white"></path><circle cx="70" cy="70" r="55" stroke="white" stroke-width="2"></circle></svg> 